mtllib nao.mtl
# https://github.com/mikedh/trimesh
mtllib material.mtl

o Neck-mesh
usemtl material_0
v -0.12599990 -0.12600010 -0.12477140
v 0.12600010 -0.12600020 -0.12477140
v 0.12600010 -0.12600020 0.12722860
v -0.12599990 0.12599990 -0.12477150
v -0.12599990 0.12600000 0.12722850
v 0.12600010 0.12599990 0.12722850
v 0.12600010 0.12599970 -0.12477160
v -0.12600000 -0.12600000 0.12722860
vn -0.70710690 -0.70710666 -0.00000016
vn 0.70710681 -0.70710675 0.00000000
vn 0.70710647 -0.70710709 0.00000013
vn -0.70710641 0.70710715 -0.00000058
vn -0.70710649 0.70710708 -0.00000029
vn 0.70710691 0.70710665 -0.00000043
vn 0.70710716 0.70710641 -0.00000056
vn -0.70710722 -0.70710634 0.00000012
vt 0.11114840 0.13681120
vt 0.11178570 0.13890180
vt 0.07133668 0.17496870
vt 0.11174860 0.13454460
vt 0.14385080 0.10689090
vt 0.14472830 0.17142799
vt 0.11386730 0.13690850
vt 0.07133853 0.08503150
usemtl nao
f 1/1/1 2/2/2 3/3/3
f 4/4/4 5/5/5 6/6/6
f 2/2/2 7/7/7 6/6/6
f 4/4/4 1/1/1 8/8/8
f 8/8/8 1/1/1 3/3/3
f 7/7/7 4/4/4 6/6/6
f 3/3/3 2/2/2 6/6/6
f 5/5/5 4/4/4 8/8/8

