mtllib nao.mtl
# https://github.com/mikedh/trimesh
mtllib material.mtl

o LUpperThigh-mesh
usemtl material_0
v -0.42700000 -0.11127229 0.12112110
v -0.42700000 -0.13625029 0.09284424
v 0.08600000 -0.13625029 0.09284424
v -0.42700000 -0.05799549 0.15671950
v 0.08600000 -0.11127229 0.12112110
v 0.08600000 -0.05799549 0.15671950
v 0.08600000 0.00484875 0.16922001
v -0.42700000 0.00484878 0.16922001
v 0.08600000 0.06769302 0.15671950
v -0.42700000 0.12096980 0.12112110
v -0.42700000 0.06769306 0.15671950
v -0.42700000 0.14594790 0.09284424
v 0.08600000 0.12096980 0.12112110
v -0.42700000 -0.13625040 -0.17315570
v 0.08600000 0.14594790 0.09284424
v 0.08599999 0.14594790 -0.17315580
v -0.27096689 0.12584870 -0.21187780
v -0.27096689 0.14484870 -0.18787780
v -0.24183059 0.14484870 -0.22383060
v -0.24183059 0.12584870 -0.24783050
v -0.13087780 0.14484870 -0.29796689
v -0.13087780 0.12584870 -0.32196677
v -0.00000001 0.14484870 -0.32400008
v 0.13087780 0.12584870 -0.32196677
v -0.00000001 0.12584870 -0.34800018
v 0.24183059 0.12584870 -0.24783050
v 0.13087780 0.14484870 -0.29796689
v -0.42696677 0.12584870 -0.21187780
v -0.24183059 0.14484870 -0.22383060
v 0.13087780 0.14484870 -0.29796689
v -0.00000001 0.14484870 -0.32400008
v -0.27096689 0.14484870 -0.18787780
v 0.24183059 0.14484870 -0.22383060
v -0.42696677 0.14484870 -0.18787780
v -0.42700000 0.14594790 -0.17315580
v -0.42696677 -0.11615130 -0.21187780
v -0.27096689 -0.11615130 -0.21187780
v -0.27096689 -0.13515130 -0.18787769
v 0.24183059 -0.11615130 -0.24783050
v 0.24183059 -0.13515130 -0.22383060
v 0.13087780 -0.13515130 -0.29796689
v 0.13087780 -0.11615130 -0.32196677
v -0.00000002 -0.13515130 -0.32400008
v -0.13087780 -0.13515130 -0.29796689
v -0.13087780 -0.11615130 -0.32196677
v -0.24183059 -0.13515130 -0.22383060
v -0.24183059 -0.11615130 -0.24783050
v -0.00000002 -0.11615130 -0.34799998
v -0.42696677 -0.13515130 -0.18787769
v -0.27096689 -0.13515130 -0.18787769
v -0.00000002 -0.13515130 -0.32400008
v 0.13087780 -0.13515130 -0.29796689
v -0.24183059 -0.13515130 -0.22383060
v -0.42696677 0.12584870 -0.21187780
v -0.42696677 -0.11615130 -0.21187780
v -0.42696677 -0.13515130 -0.18787769
v -0.42700000 -0.13625040 -0.17315570
v -0.42700000 0.14594790 -0.17315580
v -0.42696677 0.14484870 -0.18787780
v -0.42700000 0.14594790 0.09284424
v -0.42700000 -0.13625029 0.09284424
v -0.42700000 -0.11127229 0.12112110
v -0.42700000 0.12096980 0.12112110
v -0.42700000 -0.05799549 0.15671950
v -0.42700000 0.06769306 0.15671950
v -0.42700000 0.00484878 0.16922001
v 0.08600000 -0.13625029 0.09284424
v 0.08599999 -0.13625040 -0.17315580
v 0.08599999 0.14594790 -0.17315580
v 0.08600000 0.14594790 0.09284424
v 0.08600000 0.12096980 0.12112110
v 0.08600000 -0.11127229 0.12112110
v 0.08600000 0.06769302 0.15671950
v 0.08600000 -0.05799549 0.15671950
v 0.08600000 0.00484875 0.16922001
v 0.24183059 0.14484870 -0.22383060
v 0.24183059 -0.13515130 -0.22383060
v 0.24183059 0.14484870 -0.22383060
v 0.24183059 0.14484870 -0.17383060
v 0.08599999 -0.13625040 -0.17315580
v 0.24183059 -0.13515130 -0.17383060
v 0.24183059 0.14484870 -0.17383060
v 0.24183059 -0.13515130 -0.22383060
v 0.24183059 -0.13515130 -0.17383060
v 0.08599999 -0.13625040 -0.17315580
v 0.24183059 0.14484870 -0.17383060
v -0.42696677 0.14484870 -0.18787780
v -0.13087780 0.14484870 -0.29796689
v -0.42696677 -0.13515130 -0.18787769
v -0.13087780 -0.13515130 -0.29796689
v 0.24183059 -0.13515130 -0.17383060
v 0.08599999 0.14594790 -0.17315580
vn 0.00000000 -0.65799734 0.75302025
vn 0.00000000 -0.93527311 0.35392683
vn 0.00000000 -0.93527311 0.35392684
vn -0.00000001 -0.38268332 0.92387958
vn 0.00000000 -0.65799734 0.75302025
vn 0.00000000 -0.38268337 0.92387956
vn 0.00000001 -0.00000006 1.00000000
vn 0.00000000 0.00000001 1.00000000
vn 0.00000001 0.38268342 0.92387954
vn 0.00000002 0.65799676 0.75302076
vn 0.00000003 0.38268359 0.92387947
vn 0.00000000 0.93527282 0.35392762
vn 0.00000000 0.65799663 0.75302087
vn -0.00000000 -0.99930695 -0.03722389
vn 0.00000000 0.93527281 0.35392763
vn -0.00068232 0.99985505 -0.01701231
vn -0.43551464 0.44283174 -0.78372639
vn -0.23552718 0.76198887 -0.60324117
vn -0.53679492 0.66150867 -0.52369600
vn -0.61388915 0.36465101 -0.70012124
vn -0.27816890 0.75309989 -0.59620686
vn -0.33988444 0.40217221 -0.85013886
vn -0.00000001 0.78404668 -0.62070186
vn 0.33988453 0.40217233 -0.85013877
vn -0.00000014 0.41557705 -0.90955798
vn 0.80480443 0.30308229 -0.51032437
vn 0.27816889 0.75309989 -0.59620687
vn 0.00000000 0.43548655 -0.90019524
vn 0.00000000 1.00000000 0.00000000
vn 0.00000000 1.00000000 0.00000000
vn 0.00000000 1.00000000 0.00000000
vn -0.00005351 0.99831362 -0.05805092
vn 0.00388378 0.99998756 -0.00312922
vn 0.00000000 0.99722424 -0.07445684
vn 0.00000000 0.99930681 -0.03722757
vn 0.00000000 -0.43548760 -0.90019473
vn -0.43551487 -0.44283261 -0.78372576
vn -0.23552683 -0.76199034 -0.60323945
vn 0.80480443 -0.30308229 -0.51032437
vn 0.78935400 -0.48135504 -0.38107424
vn 0.27816888 -0.75309989 -0.59620687
vn 0.33988425 -0.40217226 -0.85013891
vn -0.00000002 -0.78404460 -0.62070449
vn -0.27816890 -0.75309989 -0.59620686
vn -0.33988417 -0.40217214 -0.85013900
vn -0.53679496 -0.66150890 -0.52369567
vn -0.61388915 -0.36465101 -0.70012124
vn -0.00000016 -0.41557605 -0.90955843
vn 0.00000000 -0.99722476 -0.07444987
vn -0.00005352 -0.99831393 -0.05804557
vn 0.00000000 -1.00000000 0.00000000
vn 0.00000000 -1.00000000 0.00000000
vn 0.00000000 -1.00000000 0.00000000
vn -1.00000000 0.00000000 0.00000000
vn -1.00000000 0.00000000 0.00000000
vn -0.99999894 -0.00000000 -0.00145821
vn -0.99999939 -0.00000000 -0.00110103
vn -0.99999939 -0.00000000 -0.00110103
vn -0.99999894 -0.00000000 -0.00145821
vn -1.00000000 0.00000000 0.00000000
vn -1.00000000 0.00000000 0.00000000
vn -1.00000000 0.00000000 0.00000000
vn -1.00000000 0.00000000 0.00000000
vn -1.00000000 0.00000000 0.00000000
vn -1.00000000 0.00000000 0.00000000
vn -1.00000000 0.00000000 0.00000000
vn 1.00000000 0.00000000 -0.00000002
vn 1.00000000 0.00000000 -0.00000004
vn 1.00000000 0.00000000 -0.00000004
vn 1.00000000 0.00000000 -0.00000002
vn 1.00000000 0.00000000 0.00000000
vn 1.00000000 0.00000000 0.00000000
vn 1.00000000 0.00000000 0.00000000
vn 1.00000000 0.00000000 0.00000000
vn 1.00000000 0.00000000 0.00000000
vn 0.78935400 0.48135504 -0.38107424
vn 1.00000000 0.00000000 0.00000000
vn 1.00000000 0.00000000 0.00000000
vn 1.00000000 0.00000000 0.00000000
vn 0.00433031 0.00000000 0.99999062
vn 0.00433031 0.00000000 0.99999062
vn 0.00433031 0.00000000 0.99999062
vn 0.00388341 -0.99998756 -0.00312892
vn 0.00705300 -0.99997513 0.00000000
vn -0.00068226 -0.99985508 -0.01701057
vn 0.00705367 0.99997512 0.00000000
vn 0.00000000 0.78404584 -0.62070293
vn 0.00000000 1.00000000 0.00000000
vn 0.00000000 -0.78404728 -0.62070111
vn 0.00000000 -1.00000000 0.00000000
vn 1.00000000 0.00000000 0.00000000
vn 0.00433031 0.00000000 0.99999062
vt 0.11562820 0.87430948
vt 0.11180060 0.87430948
vt 0.11180000 0.82226521
vt 0.12212880 0.87430942
vt 0.11562760 0.82226503
vt 0.12212810 0.82226491
vt 0.12862860 0.82226479
vt 0.12862930 0.87430942
vt 0.13512900 0.82226467
vt 0.14163050 0.87430930
vt 0.13512990 0.87430942
vt 0.14545830 0.87430918
vt 0.14162961 0.82226449
vt 0.08481466 0.87430978
vt 0.14545719 0.82226437
vt 0.17244340 0.82226372
vt 0.08895796 0.87763262
vt 0.08827030 0.87435770
vt 0.09272265 0.87605739
vt 0.09377646 0.87886667
vt 0.10637660 0.87739801
vt 0.10710020 0.88044977
vt 0.12039420 0.87790191
vt 0.13323110 0.88162333
vt 0.12024830 0.88114762
vt 0.14580670 0.88265872
vt 0.13439380 0.87870991
vt 0.07251060 0.87794942
vt 0.17758910 0.85552257
vt 0.18510690 0.81770968
vt 0.18774930 0.83098727
vt 0.17394190 0.85847890
vt 0.17758450 0.80645400
vt 0.17394230 0.87430531
vt 0.17244449 0.87430871
vt 0.07012861 0.90242368
vt 0.08758223 0.90566671
vt 0.08639436 0.90908498
vt 0.14595750 0.90411568
vt 0.14813630 0.90654433
vt 0.13427460 0.90759730
vt 0.13322560 0.90460777
vt 0.12015210 0.90774012
vt 0.10592750 0.90744501
vt 0.10688420 0.90436941
vt 0.09151118 0.90778351
vt 0.09295374 0.90485358
vt 0.12017940 0.90446061
vt 0.08331692 0.87430638
vt 0.08331674 0.85848010
vt 0.06950873 0.83098942
vt 0.07215064 0.81771177
vt 0.07966947 0.85552400
vt 0.15022340 0.87435770
vt 0.17477471 0.87435770
vt 0.17670231 0.87679261
vt 0.17681380 0.87828612
vt 0.14818430 0.87828612
vt 0.14829580 0.87679261
vt 0.14818440 0.90527231
vt 0.17681380 0.90527231
vt 0.17427970 0.90814090
vt 0.15071841 0.90814090
vt 0.16887470 0.91175252
vt 0.15612340 0.91175252
vt 0.16249900 0.91302061
vt 0.17686179 0.90134382
vt 0.17686179 0.87435770
vt 0.20549120 0.87435770
vt 0.20549120 0.90134382
vt 0.20295709 0.90421247
vt 0.17939579 0.90421247
vt 0.19755210 0.90782398
vt 0.18480080 0.90782398
vt 0.19117640 0.90909231
vt 0.14813630 0.88028330
vt 0.09818613 0.90913302
vt 0.12659261 0.90913302
vt 0.12659261 0.91420561
vt 0.06950873 0.92494237
vt 0.06962025 0.90913302
vt 0.09802669 0.90913302
vt 0.07967257 0.80645609
vt 0.08474510 0.80645591
vt 0.08481407 0.82226539
vt 0.17251180 0.80645400
vt 0.07241380 0.87507570
vt 0.18510941 0.84426552
vt 0.06950873 0.90548980
vt 0.07214897 0.84426731
vt 0.09818613 0.91420561
vt 0.09813815 0.92494237
usemtl nao
f 1/1/1 2/2/2 3/3/3
f 4/4/4 1/1/1 5/5/5
f 4/4/4 6/6/6 7/7/7
f 8/8/8 7/7/7 9/9/9
f 10/10/10 11/11/11 9/9/9
f 12/12/12 10/10/10 13/13/13
f 3/3/3 2/2/2 14/14/14
f 12/12/12 15/15/15 16/16/16
f 17/17/17 18/18/18 19/19/19
f 20/20/20 19/19/19 21/21/21
f 22/22/22 21/21/21 23/23/23
f 24/24/24 25/25/25 23/23/23
f 26/26/26 24/24/24 27/27/27
f 18/18/18 17/17/17 28/28/28
f 29/29/29 30/30/30 31/31/31
f 32/32/32 33/33/33 30/30/30
f 32/32/32 34/34/34 35/35/35
f 36/36/36 37/37/37 38/38/38
f 39/39/39 40/40/40 41/41/41
f 42/42/42 41/41/41 43/43/43
f 43/43/43 44/44/44 45/45/45
f 44/44/44 46/46/46 47/47/47
f 46/46/46 38/38/38 37/37/37
f 22/22/22 25/25/25 48/48/48
f 25/25/25 24/24/24 42/42/42
f 24/24/24 26/26/26 39/39/39
f 20/20/20 22/22/22 45/45/45
f 17/17/17 20/20/20 47/47/47
f 17/17/17 37/37/37 36/36/36
f 14/14/14 49/49/49 50/50/50
f 51/51/51 52/52/52 53/53/53
f 50/50/50 53/53/53 52/52/52
f 54/54/54 55/55/55 56/56/56
f 57/57/57 58/58/58 59/59/59
f 60/60/60 58/58/58 57/57/57
f 61/61/61 62/62/62 63/63/63
f 64/64/64 65/65/65 63/63/63
f 64/64/64 66/66/66 65/65/65
f 67/67/67 68/68/68 69/69/69
f 67/67/67 70/70/70 71/71/71
f 72/72/72 71/71/71 73/73/73
f 74/74/74 73/73/73 75/75/75
f 76/76/76 40/40/40 39/39/39
f 77/77/77 78/78/78 79/79/79
f 80/80/80 81/81/81 82/82/82
f 83/83/83 84/84/84 85/85/85
f 16/16/16 86/86/86 33/33/33
f 5/5/5 1/1/1 3/3/3
f 6/6/6 4/4/4 5/5/5
f 8/8/8 4/4/4 7/7/7
f 11/11/11 8/8/8 9/9/9
f 13/13/13 10/10/10 9/9/9
f 15/15/15 12/12/12 13/13/13
f 85/85/85 3/3/3 14/14/14
f 35/35/35 12/12/12 16/16/16
f 20/20/20 17/17/17 19/19/19
f 22/22/22 20/20/20 21/21/21
f 25/25/25 22/22/22 23/23/23
f 27/27/27 24/24/24 23/23/23
f 76/76/76 26/26/26 27/27/27
f 87/87/87 18/18/18 28/28/28
f 88/88/88 29/29/29 31/31/31
f 29/29/29 32/32/32 30/30/30
f 16/16/16 32/32/32 35/35/35
f 89/89/89 36/36/36 38/38/38
f 42/42/42 39/39/39 41/41/41
f 48/48/48 42/42/42 43/43/43
f 48/48/48 43/43/43 45/45/45
f 45/45/45 44/44/44 47/47/47
f 47/47/47 46/46/46 37/37/37
f 45/45/45 22/22/22 48/48/48
f 48/48/48 25/25/25 42/42/42
f 42/42/42 24/24/24 39/39/39
f 47/47/47 20/20/20 45/45/45
f 37/37/37 17/17/17 47/47/47
f 28/28/28 17/17/17 36/36/36
f 85/85/85 14/14/14 50/50/50
f 90/90/90 51/51/51 53/53/53
f 83/83/83 50/50/50 52/52/52
f 59/59/59 54/54/54 56/56/56
f 56/56/56 57/57/57 59/59/59
f 61/61/61 60/60/60 57/57/57
f 60/60/60 61/61/61 63/63/63
f 62/62/62 64/64/64 63/63/63
f 70/70/70 67/67/67 69/69/69
f 72/72/72 67/67/67 71/71/71
f 74/74/74 72/72/72 73/73/73
f 26/26/26 76/76/76 39/39/39
f 91/91/91 77/77/77 79/79/79
f 92/92/92 80/80/80 82/82/82
f 50/50/50 83/83/83 85/85/85
f 32/32/32 16/16/16 33/33/33

