mtllib nao.mtl
# https://github.com/mikedh/trimesh
mtllib material.mtl

o LShoulderPadMobile-mesh
usemtl material_0
v 0.15181699 -0.24474580 -0.27663490
v 0.06802928 -0.22574579 -0.30788619
v 0.06802928 -0.25563070 -0.30788619
v 0.18952810 -0.24474580 0.25063499
v 0.25276180 -0.24474580 0.18740120
v 0.25276180 -0.25563070 0.18740120
v 0.29561920 -0.24474580 0.10891390
v 0.31462810 -0.24474580 0.02153146
v 0.31462810 -0.25563070 0.02153146
v -0.12684519 -0.11830789 0.27487060
v -0.12684519 -0.25563070 0.27487060
v -0.21688499 -0.25563070 0.22127950
v -0.29744779 -0.25563070 -0.11067859
v -0.24150459 -0.25563070 -0.18916599
v -0.21150459 -0.06332947 -0.18916599
v -0.31339010 -0.25563070 -0.02329621
v -0.24744779 -0.03998764 -0.11067859
v -0.23183040 -0.05012970 0.14968980
v -0.28183040 -0.25563070 0.14968980
v -0.30803979 -0.25563070 0.06590207
v -0.18688499 -0.07931763 0.22127950
v -0.04976800 -0.17021360 0.30612180
v -0.04976800 -0.25563070 0.30612180
v 0.02746458 -0.20917730 0.31250129
v 0.02746458 -0.25563070 0.31250129
v 0.18952810 -0.25563070 0.25063499
v 0.11294060 -0.25563070 0.29349239
v 0.11294060 -0.23809589 0.29349239
v 0.27699729 -0.24474580 -0.15145449
v 0.27699729 -0.25563070 -0.15145449
v 0.30824859 -0.25563070 -0.06766676
v 0.22340639 -0.24474580 -0.22304380
v 0.22340639 -0.25563070 -0.22304380
v -0.01136854 -0.19057500 -0.31426580
v -0.01136854 -0.25563070 -0.31426580
v -0.09264717 -0.14051639 -0.29525699
v -0.09264717 -0.25563070 -0.29525699
v -0.25803979 -0.03310913 0.06590205
v -0.15847220 -0.09776909 -0.25239969
v -0.15847220 -0.25563070 -0.25239969
v 0.29561920 -0.25563070 0.10891390
v 0.15181699 -0.25563070 -0.27663490
v 0.30824859 -0.24474580 -0.06766676
v 0.15889060 -0.24590969 -0.29114820
v 0.07069291 -0.22590969 -0.32404418
v 0.06802928 -0.22574579 -0.30788619
v 0.26514820 -0.24590969 0.19731090
v 0.25276180 -0.24474580 0.18740120
v 0.18952810 -0.24474580 0.25063499
v 0.33027049 -0.24590969 0.02271113
v 0.31462810 -0.24474580 0.02153146
v 0.29561920 -0.24474580 0.10891390
v -0.13443810 -0.11281720 0.28938390
v -0.12684519 -0.11830789 0.27487060
v -0.18688499 -0.07931763 0.22127950
v -0.22355319 -0.05494514 -0.19907560
v -0.26138820 -0.03037483 -0.11645730
v -0.24744779 -0.03998764 -0.11067859
v -0.27816959 -0.01947693 -0.02447591
v -0.26339010 -0.02963463 -0.02329623
v -0.24494890 -0.04105064 0.15761469
v -0.23183250 -0.05012970 0.14968980
v -0.25803979 -0.03310913 0.06590205
v -0.19763790 -0.07177483 0.23297220
v -0.05330421 -0.16745479 0.32227988
v -0.04976800 -0.17021360 0.30612180
v 0.02799324 -0.20846920 0.32899520
v 0.02746458 -0.20917730 0.31250129
v 0.19858640 -0.24590969 0.26387279
v 0.11294060 -0.23809589 0.29349239
v 0.11796799 -0.23890979 0.30898580
v 0.27699729 -0.24474580 -0.15145449
v 0.30824859 -0.24474580 -0.06766676
v 0.32355518 -0.24590969 -0.07118174
v 0.22340639 -0.24474580 -0.22304380
v 0.29065929 -0.24590969 -0.15937939
v -0.01288373 -0.18888790 -0.33075958
v -0.01136854 -0.19057500 -0.31426580
v -0.09844017 -0.13619449 -0.31075040
v -0.09264717 -0.14051639 -0.29525699
v -0.27253770 -0.02313431 0.06941700
v -0.16772970 -0.09119744 -0.26563739
v -0.21150459 -0.06332947 -0.18916599
v -0.15847220 -0.09776909 -0.25239969
v 0.31026130 -0.24590969 0.11469260
v 0.23424770 -0.24590969 -0.23473649
v 0.15181699 -0.24474580 -0.27663490
v 0.23424770 -0.25790969 -0.23473649
v 0.23424770 -0.24590969 -0.23473649
v 0.29065929 -0.24590969 -0.15937939
v 0.32355518 -0.24590969 -0.07118174
v 0.32355518 -0.25790969 -0.07118174
v 0.29065929 -0.25790969 -0.15937939
v 0.15889060 -0.24590969 -0.29114820
v 0.07069291 -0.24590969 -0.32404418
v 0.07069291 -0.22590969 -0.32404418
v -0.01688373 -0.19388790 -0.33075958
v -0.01288373 -0.18888790 -0.33075958
v -0.02228616 -0.21284240 -0.33075958
v -0.10436330 -0.16546400 -0.31075040
v -0.09844017 -0.13619449 -0.31075040
v 0.02444105 -0.21940940 0.32899520
v 0.11796799 -0.23890979 0.30898580
v 0.02799324 -0.20846920 0.32899520
v 0.11596800 -0.24590969 0.30898580
v 0.19858640 -0.24590969 0.26387279
v 0.02398651 -0.24590969 0.32899520
v -0.06130422 -0.17945470 0.32227988
v -0.05330421 -0.16745479 0.32227988
v -0.14518520 -0.15220020 0.28938390
v -0.27050260 -0.11148000 0.15760999
v -0.21685409 -0.12891360 0.23297220
v -0.19763790 -0.07177483 0.23297220
v -0.30179078 -0.10131600 0.06941701
v -0.24494890 -0.04105064 0.15761469
v -0.30817739 -0.09924080 -0.02447590
v -0.27253770 -0.02313431 0.06941700
v -0.27816959 -0.01947693 -0.02447591
v -0.26138820 -0.03037483 -0.11645730
v -0.28914720 -0.10542410 -0.11645730
v -0.22355319 -0.05494514 -0.19907560
v -0.24624219 -0.11936490 -0.19907560
v -0.16772970 -0.09119744 -0.26563739
v -0.18293800 -0.13993359 -0.26563739
v -0.13443810 -0.11281720 0.28938390
v -0.23050109 -0.18357969 0.23297220
v -0.28636400 -0.17572870 0.15761469
v -0.31893979 -0.17115039 0.06941701
v -0.30577499 -0.17300060 -0.11645730
v -0.32558971 -0.17021579 -0.02447588
v -0.26110090 -0.17927919 -0.19907560
v -0.19518669 -0.18854280 -0.26563739
v -0.11337250 -0.20004100 -0.31075040
v -0.06853807 -0.20634210 0.32227988
v -0.15587740 -0.19406730 0.28938390
v -0.28987300 -0.24590969 0.15761469
v -0.23346120 -0.24590969 0.23297220
v -0.32276901 -0.24590969 0.06941701
v -0.32948428 -0.24590969 -0.02447587
v -0.30947469 -0.24590969 -0.11645730
v -0.26436170 -0.24590969 -0.19907560
v -0.19779970 -0.24590969 -0.26563739
v -0.11518140 -0.24590969 -0.31075040
v -0.02319993 -0.24590969 -0.33075958
v -0.06990638 -0.24590969 0.32227988
v -0.15810409 -0.24590969 0.28938390
v -0.28987300 -0.25790969 0.15761469
v -0.32276901 -0.25790969 0.06941701
v -0.32948428 -0.25790969 -0.02447587
v -0.30947469 -0.25790969 -0.11645730
v -0.26436170 -0.25790969 -0.19907560
v -0.19779970 -0.25790969 -0.26563739
v -0.11518140 -0.25790969 -0.31075040
v -0.02319993 -0.25790969 -0.33075958
v 0.07069291 -0.25790969 -0.32404418
v 0.15889060 -0.25790969 -0.29114820
v 0.33027049 -0.24590969 0.02271113
v 0.31026130 -0.25790969 0.11469260
v 0.33027049 -0.25790969 0.02271113
v 0.31026130 -0.24590969 0.11469260
v 0.26514820 -0.24590969 0.19731090
v 0.19858640 -0.25790969 0.26387279
v 0.26514820 -0.25790969 0.19731090
v 0.11596800 -0.25790969 0.30898580
v 0.02398651 -0.25790969 0.32899520
v -0.15810409 -0.25790969 0.28938390
v -0.06990638 -0.25790969 0.32227988
v -0.23346120 -0.25790969 0.23297220
v -0.26339010 -0.02963463 -0.02329623
vn -0.47134635 0.00000000 0.88194819
vn -0.19139570 0.00000000 0.98151296
vn -0.21685230 0.00000000 0.97620442
vn -0.60082370 0.00000000 -0.79938156
vn -0.80054120 0.00000000 -0.59927772
vn -0.80054120 0.00000000 -0.59927772
vn -0.93694954 0.00000000 -0.34946468
vn -0.99745208 0.00000000 -0.07133969
vn -0.99745208 0.00000000 -0.07133969
vn 0.52184190 -0.04851405 -0.85166156
vn 0.44487815 0.00000000 -0.89559111
vn 0.65714287 -0.08588607 -0.74885701
vn 0.91474179 -0.19078245 0.35615940
vn 0.73996225 -0.08519465 0.66723140
vn 0.80727929 -0.15487149 0.56948659
vn 0.97354916 -0.22052639 0.05975063
vn 0.92445220 -0.21008255 0.31820346
vn 0.87400252 -0.20526358 -0.44043894
vn 0.86571119 -0.19285912 -0.46189772
vn 0.95872659 -0.22173117 -0.17798487
vn 0.72093786 -0.14839044 -0.67692605
vn 0.27834522 0.00000000 -0.96048110
vn 0.23168190 0.00000000 -0.97279160
vn -0.03199474 0.00000000 -0.99948804
vn -0.06815397 0.00000000 -0.99767481
vn -0.60342281 0.00000000 -0.79742141
vn -0.35648300 0.00000000 -0.93430181
vn -0.34045364 0.00000000 -0.94026130
vn -0.87767915 0.00000000 0.47924869
vn -0.87767915 0.00000000 0.47924869
vn -0.97714686 0.00000000 0.21256533
vn -0.70710718 0.00000000 0.70710638
vn -0.70710718 0.00000000 0.70710638
vn 0.12018531 0.00000000 0.99275148
vn 0.07471294 0.00000000 0.99720508
vn 0.44588307 0.00000000 0.89509122
vn 0.39258279 0.00000000 0.91971667
vn 0.95764215 -0.21381419 -0.19288601
vn 0.64653967 -0.05246270 0.76107432
vn 0.57613680 0.00000000 0.81735328
vn -0.93694954 0.00000000 -0.34946468
vn -0.47924922 0.00000000 0.87767886
vn -0.97714686 0.00000000 0.21256533
vn 0.13095832 0.99126408 -0.01566634
vn 0.31144236 0.94934917 0.04171101
vn 0.30494390 0.95150374 0.04061828
vn 0.05849280 0.99731673 0.04402201
vn 0.05876373 0.99731570 0.04368323
vn 0.07439171 0.99655305 0.03671370
vn 0.07380190 0.99725883 0.00530137
vn 0.07380589 0.99725881 0.00524880
vn 0.06915397 0.99727650 0.02563799
vn 0.56061142 0.82783997 -0.01989518
vn 0.56091563 0.82763949 -0.01966023
vn 0.56020890 0.82813264 -0.01903465
vn 0.56231676 0.82677057 0.01582082
vn 0.56509426 0.82497596 0.00911812
vn 0.56505760 0.82499964 0.00924664
vn 0.56630629 0.82419279 0.00185196
vn 0.56630477 0.82419378 0.00187934
vn 0.56394133 0.82571885 -0.01259206
vn 0.56387184 0.82576372 -0.01275995
vn 0.56588975 0.82446185 -0.00560811
vn 0.56037146 0.82802746 -0.01882406
vn 0.51207700 0.85824771 -0.03446752
vn 0.50720927 0.86107009 -0.03601474
vn 0.38545899 0.92126390 -0.05190558
vn 0.38047971 0.92333543 -0.05183503
vn 0.07571354 0.99648662 0.03580343
vn 0.20257334 0.97916276 -0.01429469
vn 0.20846906 0.97789355 -0.01627430
vn 0.06462297 0.99729363 -0.03506106
vn 0.07224209 0.99726474 -0.01562444
vn 0.07220696 0.99726488 -0.01577726
vn 0.05172327 0.99734207 -0.05131760
vn 0.06444750 0.99729431 -0.03536363
vn 0.46975952 0.88154149 0.04701691
vn 0.46423280 0.88442142 0.04781907
vn 0.54380969 0.83865010 0.03061080
vn 0.54240822 0.83952881 0.03137999
vn 0.56590006 0.82445532 -0.00552703
vn 0.55809054 0.82950136 0.02150473
vn 0.56220481 0.82684290 0.01601797
vn 0.55788079 0.82963686 0.02171865
vn 0.06905976 0.99727687 0.02587667
vn 0.05135170 0.99734348 -0.05166225
vn 0.12664529 0.99178816 -0.01781039
vn 0.70710713 0.00000000 -0.70710644
vn 0.70710713 0.00000000 -0.70710644
vn 0.87767937 0.00000000 -0.47924828
vn 0.97714705 0.00000000 -0.21256446
vn 0.97714705 0.00000000 -0.21256446
vn 0.87767937 0.00000000 -0.47924828
vn 0.47134614 0.00000000 -0.88194831
vn 0.21256526 0.00000000 -0.97714687
vn 0.18594276 -0.00240765 -0.98255763
vn -0.07912023 0.04463936 -0.99586511
vn -0.04824577 0.02752312 -0.99845622
vn -0.08101364 0.01250226 -0.99663458
vn -0.33766199 0.07952498 -0.93790200
vn -0.37049390 0.08405965 -0.92502338
vn 0.05403443 -0.00934134 0.99849538
vn 0.35125893 -0.09601223 0.93134248
vn 0.05833553 -0.01795082 0.99813563
vn 0.33785389 -0.04676488 0.94003606
vn 0.59656550 -0.00325190 0.80255781
vn 0.06958687 -0.00124927 0.99757511
vn -0.20689950 0.09613217 0.97362786
vn -0.18165809 0.10519917 0.97771850
vn -0.46061171 0.12450172 0.87882659
vn -0.84222743 0.25444103 0.47530277
vn -0.68323712 0.19770091 0.70292346
vn -0.68599877 0.23545886 0.68845103
vn -0.93437601 0.28759736 0.21030745
vn -0.83214175 0.30437635 0.46356784
vn -0.95309243 0.29435820 -0.07048453
vn -0.91667543 0.34345411 0.20431699
vn -0.93376651 0.35129037 -0.06837534
vn -0.88256272 0.32787527 -0.33701758
vn -0.89720430 0.27415208 -0.34621536
vn -0.76621449 0.27344430 -0.58150114
vn -0.77046774 0.22880149 -0.59500364
vn -0.59302757 0.19110626 -0.78217434
vn -0.58200471 0.16166026 -0.79695450
vn -0.47945130 0.13836597 0.86659178
vn -0.70362414 0.10352613 0.70299034
vn -0.87016447 0.12794842 0.47586027
vn -0.96712653 0.14215567 0.21085073
vn -0.92796152 0.13640618 -0.34681519
vn -0.98689131 0.14505770 -0.07073756
vn -0.79489314 0.11688731 -0.59538413
vn -0.59816653 0.08809672 -0.79651476
vn -0.35347195 0.05241875 -0.93397530
vn -0.21927157 0.03286743 0.97511010
vn -0.48065440 0.07094568 0.87403550
vn -0.87808414 0.02172741 0.47801272
vn -0.70825147 0.01660054 0.70576503
vn -0.97697545 0.02483541 0.21190131
vn -0.99714349 0.02547915 -0.07110321
vn -0.93702477 0.02356373 -0.34846711
vn -0.80131757 0.01938092 -0.59792519
vn -0.60073329 0.01348616 -0.79933574
vn -0.35117607 0.00681884 -0.93628461
vn -0.07249343 0.00108386 -0.99736830
vn -0.21412534 0.00367352 0.97679929
vn -0.48091118 0.01016866 0.87671035
vn -0.87767931 0.00000000 0.47924839
vn -0.97714698 0.00000000 0.21256475
vn -0.99745199 0.00000000 -0.07134091
vn -0.93694928 0.00000000 -0.34946537
vn -0.80054081 0.00000000 -0.59927824
vn -0.59927705 0.00000000 -0.80054170
vn -0.34946337 0.00000000 -0.93695003
vn -0.07133807 0.00000000 -0.99745219
vn 0.21256526 0.00000000 -0.97714687
vn 0.47924907 0.00000000 -0.87767894
vn 0.99745216 0.00000000 0.07133858
vn 0.93694984 0.00000000 0.34946388
vn 0.99745216 0.00000000 0.07133858
vn 0.93694984 0.00000000 0.34946388
vn 0.80054118 0.00000000 0.59927775
vn 0.59927775 0.00000000 0.80054118
vn 0.80054118 0.00000000 0.59927775
vn 0.34946421 0.00000000 0.93694971
vn 0.07133965 0.00000000 0.99745208
vn -0.47924900 0.00000000 0.87767898
vn -0.21256480 0.00000000 0.97714697
vn -0.70710737 0.00000000 0.70710619
vn 0.97433656 -0.21556493 0.06480757
vt 0.10651170 0.22439300
vt 0.09679734 0.22914390
vt 0.09659856 0.22556430
vt 0.11425490 0.16796011
vt 0.12091570 0.17512010
vt 0.11993490 0.17581061
vt 0.12521340 0.18379439
vt 0.12679669 0.19335879
vt 0.12559150 0.19338500
vt 0.06770867 0.15162361
vt 0.07967454 0.16647799
vt 0.07116156 0.17282400
vt 0.06361144 0.19998190
vt 0.06817018 0.20735601
vt 0.04647713 0.21868840
vt 0.06250399 0.19308540
vt 0.03948605 0.20659520
vt 0.04367381 0.16801080
vt 0.06568819 0.17935750
vt 0.06320434 0.18594000
vt 0.05390256 0.15757550
vt 0.08402609 0.15213040
vt 0.08776885 0.16285430
vt 0.09626758 0.15618280
vt 0.09611189 0.16201410
vt 0.11350110 0.16891330
vt 0.10543530 0.16415940
vt 0.10616510 0.16226690
vt 0.12133280 0.21203910
vt 0.12033390 0.21136899
vt 0.12431000 0.20276080
vt 0.11487030 0.21918190
vt 0.11412260 0.21828330
vt 0.08553791 0.23259960
vt 0.08814114 0.22479390
vt 0.07067573 0.23259960
vt 0.08024680 0.22117060
vt 0.03813529 0.18054029
vt 0.05738931 0.22781581
vt 0.07428079 0.21557960
vt 0.12407820 0.18416980
vt 0.10602240 0.22322230
vt 0.12550969 0.20311210
vt 0.16814780 0.15162361
vt 0.17802399 0.15473050
vt 0.17718481 0.15628020
vt 0.12684610 0.18673830
vt 0.12858100 0.18675670
vt 0.12944840 0.19654921
vt 0.13300940 0.16751590
vt 0.13442560 0.16844679
vt 0.13025190 0.17716910
vt 0.15781011 0.22301270
vt 0.15794250 0.22112510
vt 0.16771559 0.22113331
vt 0.19903789 0.18772019
vt 0.19751900 0.19776000
vt 0.19568589 0.19715150
vt 0.19323960 0.20698370
vt 0.19161670 0.20591490
vt 0.17792670 0.22014390
vt 0.17706060 0.21841340
vt 0.18524180 0.21319810
vt 0.16809461 0.22301289
vt 0.14704360 0.21947820
vt 0.14769080 0.21775320
vt 0.13844180 0.21434180
vt 0.13950390 0.21289110
vt 0.12774220 0.19702250
vt 0.13282910 0.20550130
vt 0.13135020 0.20649891
vt 0.14895150 0.15604420
vt 0.14081781 0.16122000
vt 0.13973071 0.15991710
vt 0.15819740 0.15333670
vt 0.14828689 0.15447310
vt 0.18626940 0.16013829
vt 0.18500870 0.16141060
vt 0.19355670 0.16841020
vt 0.19192740 0.16926560
vt 0.18653360 0.21465120
vt 0.19768040 0.17766820
vt 0.19713150 0.18761210
vt 0.19584340 0.17806099
vt 0.12861800 0.17667870
vt 0.15801720 0.15162361
vt 0.16781460 0.15333439
vt 0.12674980 0.09476542
vt 0.12794140 0.09397834
vt 0.13243119 0.10390520
vt 0.13374960 0.11459570
vt 0.13237131 0.11455500
vt 0.13108180 0.10427480
vt 0.12029720 0.08578091
vt 0.10985010 0.08117192
vt 0.11048520 0.07869106
vt 0.09923624 0.07392030
vt 0.09970933 0.07321959
vt 0.09872716 0.07634913
vt 0.08707064 0.07227760
vt 0.08650302 0.06806242
vt 0.08903294 0.15022030
vt 0.10009070 0.14950420
vt 0.08903789 0.15157411
vt 0.09987318 0.14871261
vt 0.11030750 0.14693449
vt 0.08984798 0.14740780
vt 0.07788974 0.14977790
vt 0.07780063 0.15157411
vt 0.06735801 0.14488490
vt 0.05237060 0.12588930
vt 0.05846470 0.13657400
vt 0.05150282 0.14195420
vt 0.04959332 0.11394370
vt 0.04189848 0.12988099
vt 0.05036604 0.10169120
vt 0.03715324 0.11471210
vt 0.03836983 0.09884858
vt 0.04481685 0.08409267
vt 0.05524700 0.09034341
vt 0.05667412 0.07287991
vt 0.06347906 0.08091259
vt 0.07165127 0.06740033
vt 0.07453143 0.07458192
vt 0.06397485 0.14936601
vt 0.06403940 0.13262390
vt 0.05989032 0.12324290
vt 0.05805200 0.11338780
vt 0.06237483 0.09461188
vt 0.05901706 0.10374100
vt 0.06848216 0.08657848
vt 0.07702976 0.08039081
vt 0.08744943 0.07681626
vt 0.07902765 0.14675570
vt 0.07052510 0.14078380
vt 0.06678134 0.12136750
vt 0.06973046 0.12968171
vt 0.06504875 0.11318890
vt 0.06567090 0.10523510
vt 0.06848025 0.09779351
vt 0.07334303 0.09112054
vt 0.08019328 0.08559966
vt 0.08883702 0.08177691
vt 0.09885209 0.08019322
vt 0.08131515 0.14331169
vt 0.07454824 0.13723500
vt 0.06785339 0.12105020
vt 0.06609272 0.11310970
vt 0.06667518 0.10545070
vt 0.06939882 0.09828615
vt 0.07413780 0.09187746
vt 0.08080500 0.08660387
vt 0.08919429 0.08298861
vt 0.09890067 0.08155292
vt 0.10949420 0.08258533
vt 0.11942030 0.08702832
vt 0.13194780 0.12502800
vt 0.12606090 0.13370420
vt 0.13068300 0.12461250
vt 0.12720411 0.13453220
vt 0.11963990 0.14196961
vt 0.10984980 0.14559290
vt 0.11885300 0.14089800
vt 0.09984660 0.14737280
vt 0.09019899 0.14621100
vt 0.07546091 0.13646300
vt 0.08196604 0.14234760
vt 0.07073557 0.12918919
vt 0.03715324 0.19367179
usemtl nao
f 1/1/1 2/2/2 3/3/3
f 4/4/4 5/5/5 6/6/6
f 7/7/7 8/8/8 9/9/9
f 10/10/10 11/11/11 12/12/12
f 13/13/13 14/14/14 15/15/15
f 16/16/16 13/13/13 17/17/17
f 18/18/18 19/19/19 20/20/20
f 21/21/21 12/12/12 19/19/19
f 22/22/22 23/23/23 11/11/11
f 24/24/24 25/25/25 23/23/23
f 4/4/4 26/26/26 27/27/27
f 28/28/28 27/27/27 25/25/25
f 29/29/29 30/30/30 31/31/31
f 32/32/32 33/33/33 30/30/30
f 2/2/2 34/34/34 35/35/35
f 34/34/34 36/36/36 37/37/37
f 38/38/38 20/20/20 16/16/16
f 39/39/39 15/15/15 14/14/14
f 36/36/36 39/39/39 40/40/40
f 5/5/5 7/7/7 41/41/41
f 32/32/32 1/1/1 42/42/42
f 8/8/8 43/43/43 31/31/31
f 44/44/44 45/45/45 46/46/46
f 47/47/47 48/48/48 49/49/49
f 50/50/50 51/51/51 52/52/52
f 53/53/53 54/54/54 55/55/55
f 56/56/56 57/57/57 58/58/58
f 57/57/57 59/59/59 60/60/60
f 61/61/61 62/62/62 63/63/63
f 64/64/64 55/55/55 62/62/62
f 65/65/65 66/66/66 54/54/54
f 67/67/67 68/68/68 66/66/66
f 69/69/69 49/49/49 70/70/70
f 71/71/71 70/70/70 68/68/68
f 72/72/72 73/73/73 74/74/74
f 75/75/75 72/72/72 76/76/76
f 45/45/45 77/77/77 78/78/78
f 77/77/77 79/79/79 80/80/80
f 81/81/81 63/63/63 60/60/60
f 82/82/82 56/56/56 83/83/83
f 79/79/79 82/82/82 84/84/84
f 85/85/85 52/52/52 48/48/48
f 86/86/86 44/44/44 87/87/87
f 50/50/50 74/74/74 73/73/73
f 88/88/88 89/89/89 90/90/90
f 91/91/91 92/92/92 93/93/93
f 94/94/94 95/95/95 96/96/96
f 96/96/96 97/97/97 98/98/98
f 96/96/96 99/99/99 97/97/97
f 100/100/100 101/101/101 98/98/98
f 102/102/102 103/103/103 104/104/104
f 105/105/105 106/106/106 103/103/103
f 107/107/107 105/105/105 103/103/103
f 108/108/108 104/104/104 109/109/109
f 110/110/110 108/108/108 109/109/109
f 111/111/111 112/112/112 113/113/113
f 114/114/114 111/111/111 115/115/115
f 116/116/116 114/114/114 117/117/117
f 116/116/116 118/118/118 119/119/119
f 120/120/120 119/119/119 121/121/121
f 122/122/122 121/121/121 123/123/123
f 124/124/124 123/123/123 101/101/101
f 125/125/125 113/113/113 112/112/112
f 126/126/126 112/112/112 111/111/111
f 127/127/127 111/111/111 114/114/114
f 128/128/128 114/114/114 116/116/116
f 129/129/129 130/130/130 116/116/116
f 131/131/131 129/129/129 120/120/120
f 132/132/132 131/131/131 122/122/122
f 133/133/133 132/132/132 124/124/124
f 99/99/99 133/133/133 100/100/100
f 102/102/102 104/104/104 108/108/108
f 134/134/134 108/108/108 110/110/110
f 135/135/135 110/110/110 112/112/112
f 136/136/136 137/137/137 126/126/126
f 138/138/138 136/136/136 127/127/127
f 139/139/139 138/138/138 128/128/128
f 139/139/139 130/130/130 129/129/129
f 140/140/140 129/129/129 131/131/131
f 141/141/141 131/131/131 132/132/132
f 142/142/142 132/132/132 133/133/133
f 143/143/143 133/133/133 99/99/99
f 144/144/144 99/99/99 96/96/96
f 102/102/102 134/134/134 145/145/145
f 146/146/146 145/145/145 134/134/134
f 137/137/137 146/146/146 135/135/135
f 137/137/137 136/136/136 147/147/147
f 148/148/148 147/147/147 136/136/136
f 149/149/149 148/148/148 138/138/138
f 150/150/150 149/149/149 139/139/139
f 151/151/151 150/150/150 140/140/140
f 152/152/152 151/151/151 141/141/141
f 153/153/153 152/152/152 142/142/142
f 154/154/154 153/153/153 143/143/143
f 155/155/155 154/154/154 144/144/144
f 156/156/156 155/155/155 95/95/95
f 156/156/156 94/94/94 89/89/89
f 92/92/92 91/91/91 157/157/157
f 158/158/158 159/159/159 157/157/157
f 158/158/158 160/160/160 161/161/161
f 162/162/162 163/163/163 161/161/161
f 162/162/162 106/106/106 105/105/105
f 164/164/164 105/105/105 107/107/107
f 165/165/165 107/107/107 145/145/145
f 166/166/166 167/167/167 145/145/145
f 137/137/137 168/168/168 166/166/166
f 42/42/42 1/1/1 3/3/3
f 26/26/26 4/4/4 6/6/6
f 41/41/41 7/7/7 9/9/9
f 21/21/21 10/10/10 12/12/12
f 17/17/17 13/13/13 15/15/15
f 169/169/169 16/16/16 17/17/17
f 38/38/38 18/18/18 20/20/20
f 18/18/18 21/21/21 19/19/19
f 10/10/10 22/22/22 11/11/11
f 22/22/22 24/24/24 23/23/23
f 28/28/28 4/4/4 27/27/27
f 24/24/24 28/28/28 25/25/25
f 43/43/43 29/29/29 31/31/31
f 29/29/29 32/32/32 30/30/30
f 3/3/3 2/2/2 35/35/35
f 35/35/35 34/34/34 37/37/37
f 169/169/169 38/38/38 16/16/16
f 40/40/40 39/39/39 14/14/14
f 37/37/37 36/36/36 40/40/40
f 6/6/6 5/5/5 41/41/41
f 33/33/33 32/32/32 42/42/42
f 9/9/9 8/8/8 31/31/31
f 87/87/87 44/44/44 46/46/46
f 69/69/69 47/47/47 49/49/49
f 85/85/85 50/50/50 52/52/52
f 64/64/64 53/53/53 55/55/55
f 83/83/83 56/56/56 58/58/58
f 58/58/58 57/57/57 60/60/60
f 81/81/81 61/61/61 63/63/63
f 61/61/61 64/64/64 62/62/62
f 53/53/53 65/65/65 54/54/54
f 65/65/65 67/67/67 66/66/66
f 71/71/71 69/69/69 70/70/70
f 67/67/67 71/71/71 68/68/68
f 76/76/76 72/72/72 74/74/74
f 86/86/86 75/75/75 76/76/76
f 46/46/46 45/45/45 78/78/78
f 78/78/78 77/77/77 80/80/80
f 59/59/59 81/81/81 60/60/60
f 84/84/84 82/82/82 83/83/83
f 80/80/80 79/79/79 84/84/84
f 47/47/47 85/85/85 48/48/48
f 75/75/75 86/86/86 87/87/87
f 51/51/51 50/50/50 73/73/73
f 93/93/93 88/88/88 90/90/90
f 90/90/90 91/91/91 93/93/93
f 97/97/97 100/100/100 98/98/98
f 102/102/102 107/107/107 103/103/103
f 125/125/125 110/110/110 109/109/109
f 115/115/115 111/111/111 113/113/113
f 117/117/117 114/114/114 115/115/115
f 118/118/118 116/116/116 117/117/117
f 120/120/120 116/116/116 119/119/119
f 122/122/122 120/120/120 121/121/121
f 124/124/124 122/122/122 123/123/123
f 100/100/100 124/124/124 101/101/101
f 110/110/110 125/125/125 112/112/112
f 127/127/127 126/126/126 111/111/111
f 128/128/128 127/127/127 114/114/114
f 130/130/130 128/128/128 116/116/116
f 120/120/120 129/129/129 116/116/116
f 122/122/122 131/131/131 120/120/120
f 124/124/124 132/132/132 122/122/122
f 100/100/100 133/133/133 124/124/124
f 97/97/97 99/99/99 100/100/100
f 134/134/134 102/102/102 108/108/108
f 135/135/135 134/134/134 110/110/110
f 126/126/126 135/135/135 112/112/112
f 127/127/127 136/136/136 126/126/126
f 128/128/128 138/138/138 127/127/127
f 130/130/130 139/139/139 128/128/128
f 140/140/140 139/139/139 129/129/129
f 141/141/141 140/140/140 131/131/131
f 142/142/142 141/141/141 132/132/132
f 143/143/143 142/142/142 133/133/133
f 144/144/144 143/143/143 99/99/99
f 95/95/95 144/144/144 96/96/96
f 107/107/107 102/102/102 145/145/145
f 135/135/135 146/146/146 134/134/134
f 126/126/126 137/137/137 135/135/135
f 168/168/168 137/137/137 147/147/147
f 138/138/138 148/148/148 136/136/136
f 139/139/139 149/149/149 138/138/138
f 140/140/140 150/150/150 139/139/139
f 141/141/141 151/151/151 140/140/140
f 142/142/142 152/152/152 141/141/141
f 143/143/143 153/153/153 142/142/142
f 144/144/144 154/154/154 143/143/143
f 95/95/95 155/155/155 144/144/144
f 94/94/94 156/156/156 95/95/95
f 88/88/88 156/156/156 89/89/89
f 159/159/159 92/92/92 157/157/157
f 160/160/160 158/158/158 157/157/157
f 163/163/163 158/158/158 161/161/161
f 106/106/106 162/162/162 161/161/161
f 164/164/164 162/162/162 105/105/105
f 165/165/165 164/164/164 107/107/107
f 167/167/167 165/165/165 145/145/145
f 146/146/146 166/166/166 145/145/145
f 146/146/146 137/137/137 166/166/166

