mtllib nao.mtl
# https://github.com/mikedh/trimesh
mtllib material.mtl

o RAnkle-mesh
usemtl material_0
v 0.41282489 0.12341990 0.19202419
v 0.41282489 -0.11758010 0.19202419
v 0.41282489 -0.11758010 0.14502440
v 0.22290550 -0.11758010 0.39458919
v 0.32326320 -0.11758010 0.31946260
v 0.32326320 0.12341990 0.31946260
v 0.10544719 -0.11758010 0.43839900
v 0.22290540 0.12341990 0.39458919
v -0.01959566 -0.11758010 0.44734218
v 0.10544719 0.12341990 0.43839900
v -0.01959568 0.12341990 0.44734218
v -0.14209309 0.12341990 0.42069461
v -0.14209309 -0.11758010 0.42069461
v -0.25212089 0.12341980 0.36061458
v -0.34076541 -0.11758010 0.27197019
v -0.25212089 -0.11758010 0.36061458
v -0.34076541 0.12341980 0.27197019
v -0.40084518 0.12341980 0.16194250
v -0.42849280 -0.11758020 0.08327790
v -0.40084510 -0.11758020 0.16194250
v 0.37739028 -0.11758010 0.25610439
v 0.37739028 0.12341990 0.25610439
v 0.38796550 -0.14416790 0.18992460
v 0.38796550 -0.14416790 0.14593259
v 0.21020080 -0.14416790 0.37952571
v 0.30413570 -0.14416790 0.30920690
v 0.10025989 -0.14416790 0.42053130
v -0.01678025 -0.14416790 0.42890227
v -0.13143790 -0.14416799 0.40395988
v -0.23442390 -0.14416799 0.34772548
v -0.31739518 -0.14416799 0.26475400
v -0.37362979 -0.14416799 0.16176790
v -0.39957198 -0.14416799 0.08327790
v 0.35345470 -0.14416790 0.25227140
v -0.31117509 -0.06622307 -0.15803739
v 0.29382499 -0.06622303 -0.15803739
v 0.29382499 -0.12102460 -0.12142029
v -0.31117509 -0.00158020 -0.17089569
v 0.29382499 -0.00158016 -0.17089569
v -0.31117509 0.06306267 -0.15803739
v 0.29382490 0.06306274 -0.15803739
v -0.31117509 0.11786430 -0.12142029
v 0.29382490 0.11786430 -0.12142029
v -0.31117509 -0.12102470 -0.12142029
v 0.29382499 -0.14393160 -0.09401947
v -0.31117509 0.14077130 -0.09401947
v 0.29382490 0.14077130 -0.09401947
v 0.29382499 -0.12102460 -0.12142029
v 0.29382490 0.11786430 -0.12142029
v 0.29382490 0.14077130 -0.09401947
v 0.29382499 -0.06622303 -0.15803739
v 0.29382490 0.06306274 -0.15803739
v 0.29382499 -0.00158016 -0.17089569
v -0.31117509 -0.14393160 -0.09401947
v -0.31117509 0.14077130 -0.09401947
v -0.31117509 0.11786430 -0.12142029
v -0.31117509 -0.12102470 -0.12142029
v -0.31117509 0.06306267 -0.15803739
v -0.31117509 -0.06622307 -0.15803739
v -0.31117509 -0.00158020 -0.17089569
v 0.38796538 0.14100779 0.18992460
v 0.41282489 0.12341990 0.14502440
v 0.35345470 0.14100779 0.25227140
v 0.30413570 0.14100779 0.30920690
v 0.21020080 0.14100779 0.37952541
v 0.10025989 0.14100770 0.42053130
v -0.01678027 0.14100770 0.42890227
v -0.13143790 0.14100770 0.40395988
v -0.23442390 0.14100770 0.34772517
v -0.31739530 0.14100770 0.26475400
v -0.37362979 0.14100770 0.16176790
v -0.39957198 0.14100770 0.08327759
v 0.21020080 -0.14416790 0.37952571
v 0.10025989 -0.14416790 0.42053130
v -0.01678025 -0.14416790 0.42890227
v -0.13143790 -0.14416799 0.40395988
v -0.23442390 -0.14416799 0.34772548
v -0.31739518 -0.14416799 0.26475400
v 0.35345470 -0.14416790 0.25227140
v 0.29382490 -0.14416790 0.08598053
v -0.31117509 -0.14416799 0.08598053
v -0.31117509 0.14100770 0.08598053
v 0.29382490 0.14100770 0.08598053
v 0.29382490 0.14100770 0.08598053
v 0.29382490 -0.14416790 0.08598053
v -0.31117509 -0.14416799 0.08598053
v -0.31117509 0.14100770 0.08598053
v -0.42849280 -0.11758020 0.08327790
v -0.39957198 -0.14416799 0.08327790
v -0.39957198 0.14100770 0.08327759
v 0.41282489 -0.11758010 0.14502440
v 0.41282489 0.12341990 0.14502440
v 0.38796538 0.14100779 0.14593259
v 0.29382490 -0.14416790 0.15598050
v -0.31117509 -0.14416799 0.15598050
v -0.31117509 0.14100770 0.15598050
v 0.29382490 0.14100770 0.15598050
v 0.29382490 0.14100770 0.15598050
v 0.29382490 -0.14416790 0.15598050
v -0.39957198 -0.14416799 0.08327790
v -0.31117509 -0.14416799 0.08598053
v -0.31117509 0.14100770 0.08598053
v -0.37362979 -0.14416799 0.16176790
v -0.39957198 -0.14416799 0.08327790
v -0.37362979 0.14100770 0.16176790
v 0.38796550 -0.14416790 0.14593259
v 0.29382490 0.14100770 0.15598050
v 0.38796550 -0.14416790 0.18992460
v 0.38796538 0.14100779 0.18992460
v 0.38796538 0.14100779 0.14593259
v -0.31739530 0.14100770 0.26475400
v 0.35345470 0.14100779 0.25227140
v -0.23442390 0.14100770 0.34772517
v -0.13143790 0.14100770 0.40395988
v 0.21020080 0.14100779 0.37952541
v -0.01678027 0.14100770 0.42890227
v 0.10025989 0.14100770 0.42053130
v -0.42849280 0.12341980 0.08327790
v -0.31117509 -0.14393160 -0.09401947
v 0.29382499 -0.14393160 -0.09401947
v 0.38796538 0.14100779 0.14593259
v 0.30413570 -0.14416790 0.30920690
v -0.42849280 0.12341980 0.08327790
v -0.39957198 0.14100770 0.08327759
v -0.39957198 0.14100770 0.08327759
v 0.29382490 -0.14416790 0.15598050
v 0.38796550 -0.14416790 0.14593259
v 0.30413570 0.14100779 0.30920690
vn 0.87527925 0.43065280 0.22005546
vn 0.90962108 -0.34685521 0.22865029
vn 0.93132992 -0.36417657 0.00000000
vn 0.46059222 -0.30143474 0.83486041
vn 0.65202799 -0.31650337 0.68897396
vn 0.62791093 0.40788470 0.66284081
vn 0.20461355 -0.29258386 0.93409206
vn 0.44479851 0.39170546 0.80543225
vn -0.06982617 -0.29296755 0.95356925
vn 0.19783540 0.38271910 0.90243407
vn -0.06763592 0.38311224 0.92122223
vn -0.32567261 0.39279237 0.86002994
vn -0.33715652 -0.30251777 0.89152032
vn -0.55194485 0.40945342 0.72643292
vn -0.75704228 -0.34093850 0.55735798
vn -0.57296214 -0.31945194 0.75476145
vn -0.72725647 0.42973258 0.53518963
vn -0.81688132 0.45454298 0.35509941
vn -0.88186476 -0.35531675 0.30994282
vn -0.85366102 -0.36567793 0.37086724
vn 0.77919436 -0.33241085 0.53137480
vn 0.74860171 0.42352713 0.51011788
vn 0.70784316 -0.67769256 0.19922563
vn 0.73045051 -0.68296563 0.00000000
vn 0.37975687 -0.58669112 0.71524699
vn 0.53162225 -0.60936373 0.58826324
vn 0.17122784 -0.57233422 0.80194424
vn -0.05478168 -0.57295333 0.81775513
vn -0.27322294 -0.58845550 0.76096606
vn -0.46020939 -0.61617130 0.63917154
vn -0.59673267 -0.65161648 0.46830127
vn -0.66508606 -0.68276905 0.30246811
vn -0.66406323 -0.71150693 0.22973444
vn 0.62712307 -0.63242795 0.45469941
vn 0.00000005 -0.38268258 -0.92387988
vn 0.00000002 -0.38268281 -0.92387979
vn 0.00000009 -0.66818573 -0.74399451
vn 0.00000000 -0.00000001 -1.00000000
vn -0.00000001 -0.00000013 -1.00000000
vn -0.00000004 0.38268254 -0.92387990
vn -0.00000001 0.38268270 -0.92387984
vn -0.00000003 0.66818556 -0.74399466
vn 0.00000000 0.66818577 -0.74399447
vn 0.00000005 -0.66818636 -0.74399394
vn 0.00000014 -0.93977994 -0.34178015
vn 0.00000000 0.93977987 -0.34178033
vn 0.00000000 0.93977987 -0.34178033
vn 1.00000000 0.00000040 0.00000031
vn 1.00000000 0.00000040 -0.00000039
vn 1.00000000 0.00000022 0.00000003
vn 1.00000000 0.00000074 0.00000129
vn 1.00000000 0.00000045 -0.00000017
vn 1.00000000 0.00000074 0.00000371
vn -1.00000000 0.00000000 0.00000000
vn -1.00000000 0.00000000 0.00000000
vn -1.00000000 0.00000000 0.00000000
vn -1.00000000 0.00000000 0.00000000
vn -1.00000000 0.00000000 0.00000000
vn -1.00000000 0.00000000 0.00000000
vn -1.00000000 0.00000000 0.00000000
vn 0.56085830 0.81209845 0.16104060
vn 0.89040051 0.45517791 0.00000000
vn 0.50891486 0.77609024 0.37241054
vn 0.43590981 0.75747322 0.48602156
vn 0.31435059 0.73823668 0.59681681
vn 0.14288012 0.72577787 0.67292775
vn -0.04502830 0.72631941 0.68588087
vn -0.22519593 0.73975197 0.63407714
vn -0.37511511 0.76311343 0.52625711
vn -0.47860375 0.79171406 0.37964102
vn -0.52565553 0.81578916 0.24119352
vn -0.51600754 0.83768571 0.17893817
vn 0.00000020 -1.00000000 0.00000030
vn 0.00000000 -1.00000000 0.00000000
vn 0.00000040 -1.00000000 0.00000182
vn 0.00000026 -1.00000000 -0.00000022
vn 0.00000016 -1.00000000 -0.00000016
vn 0.00000012 -1.00000000 -0.00000004
vn 0.00000010 -1.00000000 0.00000000
vn 0.00000016 -0.99999978 -0.00065639
vn 0.00000006 -0.99999991 -0.00043492
vn 0.00000000 0.99999991 -0.00043495
vn 0.00000000 0.99999978 -0.00065666
vn 1.00000000 0.00000000 0.00000000
vn 1.00000000 0.00000011 0.00000017
vn -1.00000000 0.00000000 0.00000000
vn -1.00000000 0.00000000 0.00000000
vn 0.00000149 0.00000105 1.00000000
vn 0.00000101 0.00000110 1.00000000
vn 0.00000981 0.00000012 1.00000000
vn 0.03650884 0.00000001 0.99933333
vn 0.03650870 0.00000000 0.99933334
vn 0.07984579 0.00000003 0.99680723
vn 0.00000011 -1.00000000 -0.00000003
vn 0.00000008 -1.00000000 0.00000000
vn 0.00000000 1.00000000 0.00000000
vn -0.00000028 1.00000000 -0.00000043
vn 1.00000000 0.00000000 0.00000000
vn 1.00000000 0.00000000 0.00000000
vn -0.03056018 0.00000021 0.99953293
vn -0.03055950 0.00000000 0.99953295
vn -0.03056238 0.00000089 0.99953286
vn 0.00000000 -1.00000000 0.00000000
vn 0.00000000 -1.00000000 0.00000000
vn 0.00000000 1.00000000 0.00000000
vn 0.08363203 0.00000001 0.99649671
vn 0.10613023 0.00000003 0.99435224
vn 0.00000000 -1.00000000 0.00000000
vn -0.00000092 1.00000000 -0.00000025
vn -0.00000101 1.00000000 0.00000000
vn -0.00000005 1.00000000 -0.00000001
vn -0.00000041 1.00000000 -0.00000052
vn -0.00000016 1.00000000 0.00000016
vn -0.00000024 1.00000000 0.00000050
vn -0.00000018 1.00000000 -0.00000001
vn -0.00000019 1.00000000 0.00000106
vn 0.00000021 1.00000000 0.00000288
vn -0.85182791 0.42983448 0.29938527
vn 0.00000000 -0.93978026 -0.34177927
vn 1.00000000 0.00000033 0.00000044
vn 0.57755968 0.81634847 0.00000000
vn 0.00000019 -1.00000000 0.00000018
vn 0.00001088 0.00000000 1.00000000
vn -0.03056306 0.00000110 0.99953284
vn 0.00000000 1.00000000 0.00000000
vn 0.10613013 0.00000000 0.99435225
vn 0.00000000 -1.00000000 0.00000000
vn -0.00000019 1.00000000 -0.00000018
vt 0.10093180 0.92345518
vt 0.10108960 0.90832561
vt 0.10414980 0.90798122
vt 0.08265393 0.90780801
vt 0.09090912 0.90792590
vt 0.09067511 0.92347378
vt 0.07452988 0.90767419
vt 0.08253556 0.92322278
vt 0.06641423 0.90758300
vt 0.07452154 0.92307401
vt 0.06650680 0.92299342
vt 0.05837613 0.92298472
vt 0.05819910 0.90751737
vt 0.05021017 0.92300463
vt 0.04167312 0.90750992
vt 0.04994457 0.90750951
vt 0.04200941 0.92309427
vt 0.03364515 0.92345828
vt 0.02765548 0.90716970
vt 0.03334009 0.90734380
vt 0.09638333 0.90808803
vt 0.09613579 0.92354029
vt 0.10074280 0.90590972
vt 0.10375000 0.90550143
vt 0.08241111 0.90559632
vt 0.09047818 0.90562987
vt 0.07447117 0.90554911
vt 0.06654369 0.90540648
vt 0.05849754 0.90528917
vt 0.05039399 0.90521133
vt 0.04227024 0.90512627
vt 0.03417086 0.90486437
vt 0.02842378 0.90451592
vt 0.09575241 0.90572441
vt 0.03345501 0.86351222
vt 0.07314217 0.86351132
vt 0.07314223 0.86783493
vt 0.03345489 0.85918862
vt 0.07314211 0.85918772
vt 0.03345471 0.85486501
vt 0.07314211 0.85486412
vt 0.03345459 0.85054141
vt 0.07314199 0.85054052
vt 0.03345513 0.86783582
vt 0.07314223 0.87017781
vt 0.03345453 0.84819847
vt 0.07314193 0.84819758
vt 0.08087104 0.81714040
vt 0.09654188 0.81714040
vt 0.09804451 0.81893778
vt 0.08446598 0.81473827
vt 0.09294694 0.81473827
vt 0.08870643 0.81389481
vt 0.07936841 0.84718031
vt 0.09804451 0.84718031
vt 0.09654188 0.84897780
vt 0.08087104 0.84897780
vt 0.09294694 0.85137981
vt 0.08446598 0.85137981
vt 0.08870643 0.85222328
vt 0.10050880 0.92552471
vt 0.10412450 0.92393720
vt 0.09539562 0.92545879
vt 0.09015041 0.92528450
vt 0.08222061 0.92494661
vt 0.07441139 0.92472100
vt 0.06660240 0.92469293
vt 0.05866265 0.92473912
vt 0.05066919 0.92483830
vt 0.04263824 0.92503858
vt 0.03453546 0.92552722
vt 0.02872347 0.92610502
vt 0.06765717 0.90124160
vt 0.06044530 0.90393162
vt 0.05276775 0.90448087
vt 0.04524636 0.90284491
vt 0.03849065 0.89915609
vt 0.03304779 0.89371341
vt 0.07705408 0.89289391
vt 0.07314240 0.88198560
vt 0.03345555 0.88198632
vt 0.03345423 0.83639061
vt 0.07314169 0.83638972
vt 0.09806001 0.83074552
vt 0.07935291 0.83074558
vt 0.07935291 0.83537251
vt 0.09806013 0.83537251
vt 0.08109700 0.86786950
vt 0.07935291 0.86597228
vt 0.09806001 0.86597228
vt 0.08109700 0.85225832
vt 0.09690630 0.85225832
vt 0.09806013 0.85389018
vt 0.07314246 0.88657743
vt 0.03345566 0.88657820
vt 0.03345412 0.83179867
vt 0.07314157 0.83179772
vt 0.09806001 0.83533752
vt 0.07935291 0.83533740
vt 0.07935291 0.86593717
vt 0.07935291 0.86013579
vt 0.09806001 0.86013579
vt 0.02935880 0.88695782
vt 0.02765703 0.88180912
vt 0.02935713 0.83141923
vt 0.07935291 0.85389018
vt 0.09806013 0.86010081
vt 0.07931780 0.88880408
vt 0.07931703 0.82957089
vt 0.07931715 0.83245671
vt 0.03304588 0.82466322
vt 0.07705307 0.82548100
vt 0.03848856 0.81922030
vt 0.04524427 0.81553108
vt 0.06765556 0.81713349
vt 0.05276566 0.81389481
vt 0.06044340 0.81444371
vt 0.02787202 0.92383122
vt 0.03345525 0.87017858
vt 0.07936841 0.81893778
vt 0.10365780 0.92610502
vt 0.07381898 0.89662868
vt 0.09690624 0.86786950
vt 0.09806001 0.86593717
vt 0.02765548 0.83656812
vt 0.07935291 0.86010081
vt 0.07931780 0.88591832
vt 0.07381772 0.82174617
usemtl nao
f 1/1/1 2/2/2 3/3/3
f 4/4/4 5/5/5 6/6/6
f 7/7/7 4/4/4 8/8/8
f 9/9/9 7/7/7 10/10/10
f 9/9/9 11/11/11 12/12/12
f 13/13/13 12/12/12 14/14/14
f 15/15/15 16/16/16 14/14/14
f 15/15/15 17/17/17 18/18/18
f 19/19/19 20/20/20 18/18/18
f 21/21/21 22/22/22 6/6/6
f 1/1/1 22/22/22 21/21/21
f 23/23/23 24/24/24 3/3/3
f 4/4/4 25/25/25 26/26/26
f 7/7/7 27/27/27 25/25/25
f 7/7/7 9/9/9 28/28/28
f 9/9/9 13/13/13 29/29/29
f 13/13/13 16/16/16 30/30/30
f 16/16/16 15/15/15 31/31/31
f 15/15/15 20/20/20 32/32/32
f 20/20/20 19/19/19 33/33/33
f 5/5/5 26/26/26 34/34/34
f 21/21/21 34/34/34 23/23/23
f 35/35/35 36/36/36 37/37/37
f 38/38/38 39/39/39 36/36/36
f 40/40/40 41/41/41 39/39/39
f 42/42/42 43/43/43 41/41/41
f 44/44/44 37/37/37 45/45/45
f 46/46/46 47/47/47 43/43/43
f 48/48/48 49/49/49 50/50/50
f 48/48/48 51/51/51 52/52/52
f 51/51/51 53/53/53 52/52/52
f 54/54/54 55/55/55 56/56/56
f 57/57/57 56/56/56 58/58/58
f 59/59/59 58/58/58 60/60/60
f 61/61/61 1/1/1 62/62/62
f 6/6/6 22/22/22 63/63/63
f 61/61/61 63/63/63 22/22/22
f 8/8/8 6/6/6 64/64/64
f 65/65/65 66/66/66 10/10/10
f 10/10/10 66/66/66 67/67/67
f 11/11/11 67/67/67 68/68/68
f 12/12/12 68/68/68 69/69/69
f 14/14/14 69/69/69 70/70/70
f 17/17/17 70/70/70 71/71/71
f 18/18/18 71/71/71 72/72/72
f 73/73/73 74/74/74 75/75/75
f 73/73/73 76/76/76 77/77/77
f 77/77/77 78/78/78 79/79/79
f 45/45/45 80/80/80 81/81/81
f 46/46/46 82/82/82 83/83/83
f 50/50/50 84/84/84 85/85/85
f 54/54/54 86/86/86 87/87/87
f 88/88/88 89/89/89 90/90/90
f 91/91/91 92/92/92 93/93/93
f 80/80/80 94/94/94 95/95/95
f 82/82/82 96/96/96 97/97/97
f 84/84/84 98/98/98 99/99/99
f 100/100/100 101/101/101 102/102/102
f 103/103/103 104/104/104 81/81/81
f 105/105/105 96/96/96 82/82/82
f 78/78/78 103/103/103 95/95/95
f 78/78/78 95/95/95 94/94/94
f 106/106/106 93/93/93 107/107/107
f 108/108/108 79/79/79 94/94/94
f 109/109/109 110/110/110 97/97/97
f 105/105/105 111/111/111 96/96/96
f 97/97/97 96/96/96 111/111/111
f 112/112/112 111/111/111 113/113/113
f 113/113/113 114/114/114 115/115/115
f 116/116/116 117/117/117 115/115/115
f 62/62/62 1/1/1 3/3/3
f 8/8/8 4/4/4 6/6/6
f 10/10/10 7/7/7 8/8/8
f 11/11/11 9/9/9 10/10/10
f 13/13/13 9/9/9 12/12/12
f 16/16/16 13/13/13 14/14/14
f 17/17/17 15/15/15 14/14/14
f 20/20/20 15/15/15 18/18/18
f 118/118/118 19/19/19 18/18/18
f 5/5/5 21/21/21 6/6/6
f 2/2/2 1/1/1 21/21/21
f 2/2/2 23/23/23 3/3/3
f 5/5/5 4/4/4 26/26/26
f 4/4/4 7/7/7 25/25/25
f 27/27/27 7/7/7 28/28/28
f 28/28/28 9/9/9 29/29/29
f 29/29/29 13/13/13 30/30/30
f 30/30/30 16/16/16 31/31/31
f 31/31/31 15/15/15 32/32/32
f 32/32/32 20/20/20 33/33/33
f 21/21/21 5/5/5 34/34/34
f 2/2/2 21/21/21 23/23/23
f 44/44/44 35/35/35 37/37/37
f 35/35/35 38/38/38 36/36/36
f 38/38/38 40/40/40 39/39/39
f 40/40/40 42/42/42 41/41/41
f 119/119/119 44/44/44 45/45/45
f 42/42/42 46/46/46 43/43/43
f 120/120/120 48/48/48 50/50/50
f 49/49/49 48/48/48 52/52/52
f 57/57/57 54/54/54 56/56/56
f 59/59/59 57/57/57 58/58/58
f 121/121/121 61/61/61 62/62/62
f 64/64/64 6/6/6 63/63/63
f 1/1/1 61/61/61 22/22/22
f 65/65/65 8/8/8 64/64/64
f 8/8/8 65/65/65 10/10/10
f 11/11/11 10/10/10 67/67/67
f 12/12/12 11/11/11 68/68/68
f 14/14/14 12/12/12 69/69/69
f 17/17/17 14/14/14 70/70/70
f 18/18/18 17/17/17 71/71/71
f 118/118/118 18/18/18 72/72/72
f 76/76/76 73/73/73 75/75/75
f 122/122/122 73/73/73 77/77/77
f 122/122/122 77/77/77 79/79/79
f 119/119/119 45/45/45 81/81/81
f 47/47/47 46/46/46 83/83/83
f 120/120/120 50/50/50 85/85/85
f 55/55/55 54/54/54 87/87/87
f 123/123/123 88/88/88 90/90/90
f 106/106/106 91/91/91 93/93/93
f 81/81/81 80/80/80 95/95/95
f 83/83/83 82/82/82 97/97/97
f 85/85/85 84/84/84 99/99/99
f 124/124/124 100/100/100 102/102/102
f 95/95/95 103/103/103 81/81/81
f 125/125/125 105/105/105 82/82/82
f 79/79/79 78/78/78 94/94/94
f 126/126/126 106/106/106 107/107/107
f 127/127/127 108/108/108 94/94/94
f 112/112/112 109/109/109 97/97/97
f 112/112/112 97/97/97 111/111/111
f 128/128/128 112/112/112 113/113/113
f 128/128/128 113/113/113 115/115/115
f 114/114/114 116/116/116 115/115/115

