mtllib nao.mtl
# https://github.com/mikedh/trimesh
mtllib material.mtl

o RShoulderPadMobil_001-mesh
usemtl material_0
v 0.15181960 0.24475860 0.27663259
v 0.06803182 0.22576000 0.30788480
v 0.06803182 0.25564489 0.30788339
v 0.25276439 0.24473709 -0.18740350
v 0.25276439 0.25562200 -0.18740400
v 0.18953060 0.25561910 -0.25063779
v 0.31463060 0.24474479 -0.02153379
v 0.31463060 0.25562969 -0.02153429
v 0.29562169 0.25562559 -0.10891670
v -0.12684260 0.11829520 -0.27486699
v -0.12684260 0.25561799 -0.27487340
v -0.21688240 0.25562040 -0.22128229
v -0.29744529 0.25563579 0.11067580
v -0.24150199 0.25563939 0.18916309
v -0.21150199 0.06333820 0.18917200
v -0.31338750 0.25563169 0.02329338
v -0.24744529 0.03999275 0.11068570
v -0.23182790 0.05012279 -0.14968310
v -0.28182790 0.25562370 -0.14969260
v -0.30803729 0.25562759 -0.06590488
v -0.18688249 0.07930740 -0.22127420
v -0.04976547 0.17019939 -0.30612069
v -0.04976547 0.25561649 -0.30612458
v 0.02746710 0.20916290 -0.31250200
v 0.02746710 0.25561620 -0.31250409
v 0.18953060 0.24473419 -0.25063730
v 0.11294320 0.25561710 -0.29349519
v 0.11294320 0.23808229 -0.29349439
v 0.27699989 0.25563760 0.15145170
v 0.30825109 0.25563379 0.06766395
v 0.30825109 0.24474889 0.06766444
v 0.22340890 0.25564100 0.22304100
v 0.27699989 0.24475280 0.15145219
v -0.01136601 0.19058950 0.31426599
v -0.01136601 0.25564519 0.31426299
v -0.09264464 0.14053000 0.29525949
v -0.09264464 0.25564430 0.29525419
v -0.25803729 0.03310608 -0.06589460
v -0.15846969 0.09778075 0.25240419
v -0.15846969 0.25564229 0.25239679
v 0.29562169 0.24474079 -0.10891619
v 0.22340890 0.24475610 0.22304149
v 0.15181960 0.25564340 0.27663209
v 0.15889310 0.24592319 0.29114580
v 0.07069545 0.22592470 0.32404281
v 0.06803182 0.22576000 0.30788480
v 0.26515079 0.24590059 -0.19731330
v 0.25276439 0.24473709 -0.18740350
v 0.18953060 0.24473419 -0.25063730
v 0.33027301 0.24590869 -0.02271351
v 0.31463060 0.24474479 -0.02153379
v 0.29562169 0.24474079 -0.10891619
v -0.13443559 0.11280380 -0.28938009
v -0.12684260 0.11829520 -0.27486699
v -0.18688249 0.07930740 -0.22127420
v -0.22355070 0.05495434 0.19908199
v -0.26138570 0.03038021 0.11646490
v -0.24744529 0.03999275 0.11068570
v -0.27816699 0.01947803 0.02448398
v -0.26338760 0.02963570 0.02330384
v -0.24494630 0.04104336 -0.15760760
v -0.23183000 0.05012279 -0.14968310
v -0.25803729 0.03310608 -0.06589460
v -0.19763540 0.07176407 -0.23296649
v -0.05330169 0.16743990 -0.32227859
v -0.04976547 0.17019939 -0.30612069
v 0.02799576 0.20845409 -0.32899577
v 0.02746710 0.20916290 -0.31250200
v 0.19858900 0.24589750 -0.26387510
v 0.11294320 0.23808229 -0.29349439
v 0.11797060 0.23889549 -0.30898790
v 0.27699989 0.24475280 0.15145219
v 0.30825109 0.24474889 0.06766444
v 0.32355769 0.24591299 0.07117937
v 0.22340890 0.24475610 0.22304149
v 0.29066179 0.24591709 0.15937700
v -0.01288121 0.18890310 0.33075980
v -0.01136601 0.19058950 0.31426599
v -0.09843765 0.13620889 0.31075309
v -0.09264464 0.14053000 0.29525949
v -0.27253509 0.02313110 -0.06940909
v -0.16772720 0.09120970 0.26564220
v -0.21150199 0.06333820 0.18917200
v -0.15846969 0.09778075 0.25240419
v 0.31026380 0.24590440 -0.11469499
v 0.23425029 0.24592060 0.23473409
v 0.15181960 0.24475860 0.27663259
v 0.23425029 0.25792049 0.23473360
v 0.23425029 0.24592060 0.23473409
v 0.29066179 0.24591709 0.15937700
v 0.32355769 0.24591299 0.07117937
v 0.32355769 0.25791299 0.07117881
v 0.29066179 0.25791709 0.15937640
v 0.15889310 0.24592319 0.29114580
v 0.07069545 0.24592470 0.32404189
v 0.07069545 0.22592470 0.32404281
v -0.01688121 0.19390310 0.33075969
v -0.01288121 0.18890310 0.33075980
v -0.02228364 0.21285770 0.33075877
v -0.10436080 0.16547840 0.31075179
v -0.09843765 0.13620889 0.31075309
v 0.02444357 0.21939420 -0.32899631
v 0.11797060 0.23889549 -0.30898790
v 0.02799576 0.20845409 -0.32899577
v 0.11597060 0.24589549 -0.30898820
v 0.19858900 0.24589750 -0.26387510
v 0.02398903 0.24589460 -0.32899760
v -0.06130169 0.17943990 -0.32227920
v -0.05330169 0.16743990 -0.32227859
v -0.14518260 0.15218680 -0.28938190
v -0.27049999 0.11147279 -0.15760620
v -0.21685150 0.12890279 -0.23296920
v -0.19763540 0.07176407 -0.23296649
v -0.30178819 0.10131280 -0.06941272
v -0.24494630 0.04104336 -0.15760760
v -0.30817489 0.09924193 0.02448029
v -0.27253509 0.02313110 -0.06940909
v -0.27816699 0.01947803 0.02448398
v -0.26138570 0.03038021 0.11646490
v -0.28914470 0.10542949 0.11646149
v -0.22355070 0.05495434 0.19908199
v -0.24623969 0.11937400 0.19907909
v -0.16772720 0.09120970 0.26564220
v -0.18293550 0.13994589 0.26563999
v -0.13443559 0.11280380 -0.28938009
v -0.23049859 0.18356899 -0.23297170
v -0.28636150 0.17572139 -0.15761380
v -0.31893720 0.17114719 -0.06941594
v -0.30577239 0.17300600 0.11645830
v -0.32558707 0.17021700 0.02447700
v -0.26109840 0.17928840 0.19907630
v -0.19518419 0.18855510 0.26563770
v -0.11337000 0.20005529 0.31075019
v -0.06853555 0.20632720 -0.32228050
v -0.15587490 0.19405399 -0.28938390
v -0.28987048 0.24590249 -0.15761699
v -0.23345859 0.24589899 -0.23297460
v -0.32276641 0.24590650 -0.06941939
v -0.32948169 0.24591089 0.02447349
v -0.30947219 0.24591510 0.11645500
v -0.26435909 0.24591890 0.19907320
v -0.19779720 0.24592199 0.26563510
v -0.11517890 0.24592409 0.31074809
v -0.02319741 0.24592500 0.33075729
v -0.06990386 0.24589490 -0.32228221
v -0.15810150 0.24589639 -0.28938619
v -0.28987048 0.25790239 -0.15761759
v -0.32276641 0.25790649 -0.06941995
v -0.30947219 0.25791509 0.11645440
v -0.32948169 0.25791080 0.02447293
v -0.26435909 0.25791889 0.19907270
v -0.11517890 0.25792400 0.31074750
v -0.19779720 0.25792200 0.26563449
v -0.02319741 0.25792499 0.33075668
v 0.07069545 0.25792470 0.32404128
v 0.15889310 0.25792320 0.29114530
v 0.33027301 0.24590869 -0.02271351
v 0.31026380 0.25790439 -0.11469550
v 0.33027301 0.25790870 -0.02271406
v 0.31026380 0.24590440 -0.11469499
v 0.26515079 0.24590059 -0.19731330
v 0.26515079 0.25790059 -0.19731380
v 0.19858900 0.25789749 -0.26387569
v 0.11597060 0.25789539 -0.30898870
v 0.02398903 0.25789449 -0.32899810
v -0.06990386 0.25789480 -0.32228278
v -0.23345859 0.25789890 -0.23297510
v -0.15810150 0.25789640 -0.28938680
v -0.26338760 0.02963570 0.02330384
vn -0.47134652 -0.00004034 -0.88194810
vn -0.19139554 -0.00004608 -0.98151299
vn -0.21685226 -0.00004604 -0.97620443
vn -0.80054123 0.00002730 0.59927768
vn -0.80054128 0.00002732 0.59927761
vn -0.60342277 0.00003633 0.79742144
vn -0.99745208 0.00000329 0.07133972
vn -0.99745208 0.00000328 0.07133968
vn -0.93694968 0.00001622 0.34946429
vn 0.52184169 0.04855327 0.85165946
vn 0.44487848 0.00004153 0.89559094
vn 0.65714238 0.08592029 0.74885352
vn 0.91474172 0.19076603 -0.35616837
vn 0.73996204 0.08516358 -0.66723560
vn 0.80727924 0.15484518 -0.56949381
vn 0.97354917 0.22052360 -0.05976087
vn 0.92445210 0.21006777 -0.31821352
vn 0.87400253 0.20528400 0.44042939
vn 0.86571111 0.19288034 0.46188899
vn 0.95872666 0.22173948 0.17797414
vn 0.72093749 0.14842137 0.67691966
vn 0.27834589 0.00004419 0.96048090
vn 0.23168217 0.00004425 0.97279153
vn -0.03199448 0.00004526 0.99948804
vn -0.06815381 0.00004509 0.99767482
vn -0.60082362 0.00003643 0.79938162
vn -0.35648321 0.00004268 0.93430173
vn -0.34045380 0.00004288 0.94026124
vn -0.87767920 -0.00002183 -0.47924861
vn -0.97714696 -0.00000959 -0.21256486
vn -0.97714699 -0.00000960 -0.21256471
vn -0.70710709 -0.00003222 -0.70710647
vn -0.87767926 -0.00002183 -0.47924849
vn 0.12018546 -0.00004571 -0.99275146
vn 0.07471311 -0.00004604 -0.99720507
vn 0.44588316 -0.00004156 -0.89509117
vn 0.39258315 -0.00004236 -0.91971651
vn 0.95764218 0.21382299 0.19287608
vn 0.64654019 0.05242727 -0.76107632
vn 0.57613721 -0.00003811 -0.81735299
vn -0.93694969 0.00001621 0.34946428
vn -0.70710716 -0.00003222 -0.70710641
vn -0.47924936 -0.00003999 -0.87767879
vn 0.13096009 -0.99126308 0.01571465
vn 0.31144319 -0.94935095 -0.04166431
vn 0.30494479 -0.95150547 -0.04057110
vn 0.05849635 -0.99731843 -0.04397873
vn 0.05876721 -0.99731739 -0.04363987
vn 0.07439328 -0.99655457 -0.03666929
vn 0.07380608 -0.99725876 -0.00525583
vn 0.07381042 -0.99725872 -0.00520334
vn 0.06915437 -0.99727767 -0.02559134
vn 0.56061087 -0.82783944 0.01993255
vn 0.56091506 -0.82763900 0.01969743
vn 0.56020847 -0.82813205 0.01907274
vn 0.56231446 -0.82677289 -0.01578096
vn 0.56509431 -0.82497635 -0.00907993
vn 0.56505727 -0.82500030 -0.00920838
vn 0.56630972 -0.82419052 -0.00181382
vn 0.56630795 -0.82419167 -0.00184119
vn 0.56394383 -0.82571654 0.01263147
vn 0.56387419 -0.82576152 0.01279926
vn 0.56589248 -0.82445971 0.00564686
vn 0.56037125 -0.82802673 0.01886228
vn 0.51207681 -0.85824637 0.03450389
vn 0.50720913 -0.86106865 0.03605115
vn 0.38545903 -0.92126165 0.05194526
vn 0.38047984 -0.92333314 0.05187495
vn 0.07571480 -0.99648812 -0.03575899
vn 0.20257318 -0.97916214 0.01433911
vn 0.20846899 -0.97789283 0.01631865
vn 0.06462524 -0.99729182 0.03510852
vn 0.07224503 -0.99726379 0.01567108
vn 0.07220980 -0.99726393 0.01582388
vn 0.05172604 -0.99733939 0.05136680
vn 0.06444981 -0.99729247 0.03541116
vn 0.46976011 -0.88154322 -0.04697852
vn 0.46423332 -0.88442322 -0.04778062
vn 0.54380817 -0.83865262 -0.03056884
vn 0.54240667 -0.83953137 -0.03133803
vn 0.56590283 -0.82445316 0.00556577
vn 0.55809102 -0.82950202 -0.02146641
vn 0.56220251 -0.82684523 -0.01597814
vn 0.55788132 -0.82963751 -0.02168030
vn 0.06906017 -0.99727804 -0.02583014
vn 0.05135451 -0.99734079 0.05171139
vn 0.12664661 -0.99178712 0.01785902
vn 0.70710697 0.00002944 0.70710659
vn 0.70710740 0.00002922 0.70710616
vn 0.87767950 0.00002378 0.47924805
vn 0.97714699 0.00001001 0.21256472
vn 0.97714702 0.00000996 0.21256459
vn 0.87767981 0.00002395 0.47924749
vn 0.47134665 0.00003671 0.88194803
vn 0.21256558 0.00004703 0.97714680
vn 0.18594330 0.00245234 0.98255742
vn -0.07911759 -0.04460160 0.99586701
vn -0.04824001 -0.02749383 0.99845731
vn -0.08101401 -0.01245589 0.99663513
vn -0.33766134 -0.07948270 0.93790582
vn -0.37049292 -0.08401844 0.92502751
vn 0.05403439 0.00929306 -0.99849583
vn 0.35125896 0.09596950 -0.93134687
vn 0.05833636 0.01790248 -0.99813645
vn 0.33785413 0.04672415 -0.94003800
vn 0.59656572 0.00321248 -0.80255780
vn 0.06958626 0.00120429 -0.99757521
vn -0.20689846 -0.09617933 -0.97362342
vn -0.18165750 -0.10524691 -0.97771348
vn -0.46061127 -0.12454286 -0.87882099
vn -0.84222726 -0.25446341 -0.47529109
vn -0.68323704 -0.19773362 -0.70291433
vn -0.68599906 -0.23549068 -0.68843985
vn -0.93437587 -0.28760725 -0.21029457
vn -0.83214192 -0.30439771 -0.46355350
vn -0.95309259 -0.29435452 0.07049772
vn -0.91667525 -0.34346389 -0.20430138
vn -0.93376623 -0.35128807 0.06839097
vn -0.88256263 -0.32786009 0.33703258
vn -0.89720449 -0.27413557 0.34622796
vn -0.76621430 -0.27341831 0.58151360
vn -0.77046774 -0.22877424 0.59501413
vn -0.59302733 -0.19107068 0.78218321
vn -0.58200462 -0.16162341 0.79696204
vn -0.47945151 -0.13840508 -0.86658542
vn -0.70362431 -0.10355843 -0.70298541
vn -0.87016458 -0.12797067 -0.47585408
vn -0.96712664 -0.14216526 -0.21084380
vn -0.92796181 -0.13639003 0.34682076
vn -0.98689142 -0.14505367 0.07074429
vn -0.79489328 -0.11685898 0.59538950
vn -0.59816697 -0.08805978 0.79651852
vn -0.35347189 -0.05237587 0.93397773
vn -0.21927128 -0.03291218 -0.97510866
vn -0.48065432 -0.07098584 -0.87403228
vn -0.87808432 -0.02175005 -0.47801137
vn -0.70825117 -0.01663099 -0.70576462
vn -0.97697553 -0.02484524 -0.21189982
vn -0.99714351 -0.02547612 0.07110401
vn -0.93702481 -0.02354749 0.34846812
vn -0.80131754 -0.01935412 0.59792610
vn -0.60073371 -0.01344790 0.79933607
vn -0.35117591 -0.00677435 0.93628499
vn -0.07249352 -0.00103603 0.99736835
vn -0.21412561 -0.00371810 -0.97679906
vn -0.48091108 -0.01020980 -0.87670992
vn -0.87767924 -0.00002374 -0.47924853
vn -0.97714703 -0.00000997 -0.21256452
vn -0.93694941 0.00001747 0.34946503
vn -0.99745203 0.00000333 0.07134033
vn -0.80054062 0.00002521 0.59927849
vn -0.34946337 0.00004622 0.93695003
vn -0.59927762 0.00004072 0.80054128
vn -0.07133813 0.00005067 0.99745219
vn 0.21256543 0.00004970 0.97714683
vn 0.47924910 0.00003664 0.87767893
vn 0.99745215 -0.00000323 -0.07133875
vn 0.93695009 -0.00001475 -0.34946320
vn 0.99745215 -0.00000326 -0.07133866
vn 0.93694984 -0.00001470 -0.34946388
vn 0.80054123 -0.00002499 -0.59927768
vn 0.80054167 -0.00002478 -0.59927709
vn 0.59927772 -0.00003893 -0.80054120
vn 0.34946429 -0.00003872 -0.93694968
vn 0.07133921 -0.00004148 -0.99745211
vn -0.21256512 -0.00004672 -0.97714690
vn -0.70710732 -0.00002922 -0.70710624
vn -0.47924859 -0.00004433 -0.87767920
vn 0.97433663 0.21556161 -0.06481755
vt 0.15443841 0.30451539
vt 0.14352010 0.31711879
vt 0.14107411 0.31217369
vt 0.14492670 0.22524160
vt 0.14394771 0.22682710
vt 0.13052660 0.22092870
vt 0.16443160 0.24773610
vt 0.16272131 0.24850820
vt 0.15495449 0.23624539
vt 0.05460840 0.22468440
vt 0.08087533 0.23824459
vt 0.07277470 0.25258020
vt 0.07902187 0.29584071
vt 0.09011816 0.30350319
vt 0.06630897 0.33276400
vt 0.07314455 0.28674001
vt 0.04898589 0.32006180
vt 0.03085356 0.26293889
vt 0.06909608 0.26527199
vt 0.06967973 0.27616259
vt 0.03879261 0.24176930
vt 0.07805246 0.21515539
vt 0.09008973 0.22802711
vt 0.09797769 0.21322070
vt 0.10140120 0.22161120
vt 0.13103050 0.21910040
vt 0.11597910 0.21887890
vt 0.11587350 0.21571019
vt 0.16621719 0.27751610
vt 0.16662200 0.26273999
vt 0.16855671 0.26250759
vt 0.16158301 0.29121840
vt 0.16805850 0.27786171
vt 0.12969521 0.32875720
vt 0.12867500 0.31619361
vt 0.10877500 0.33764261
vt 0.11539340 0.31580991
vt 0.03085350 0.28411680
vt 0.08722519 0.33892581
vt 0.10361390 0.31146461
vt 0.15634909 0.23501800
vt 0.16319780 0.29204491
vt 0.15303481 0.30314711
vt 0.21641290 0.32364330
vt 0.20113660 0.31883749
vt 0.20243479 0.31644061
vt 0.28029680 0.26932931
vt 0.27761340 0.26930061
vt 0.27627170 0.25415400
vt 0.27076349 0.29906169
vt 0.26857299 0.29762179
vt 0.27502880 0.28413051
vt 0.23240291 0.21322110
vt 0.23219790 0.21614070
vt 0.21708140 0.21612810
vt 0.16863310 0.26781031
vt 0.17098249 0.25228110
vt 0.17381790 0.25322229
vt 0.17760170 0.23801410
vt 0.18011200 0.23966740
vt 0.20128730 0.21765840
vt 0.20262679 0.22033520
vt 0.18997250 0.22840200
vt 0.21649520 0.21322070
vt 0.24905600 0.21868820
vt 0.24805500 0.22135641
vt 0.26236111 0.22663310
vt 0.26071820 0.22887699
vt 0.27891061 0.25342199
vt 0.27104250 0.24030730
vt 0.27333000 0.23876420
vt 0.24610500 0.31680560
vt 0.25868580 0.30879980
vt 0.26036721 0.31081501
vt 0.23180370 0.32099351
vt 0.24713279 0.31923580
vt 0.18838300 0.31047291
vt 0.19033290 0.30850491
vt 0.17711119 0.29767820
vt 0.17963120 0.29635531
vt 0.18797439 0.22615419
vt 0.17073280 0.28335831
vt 0.17158189 0.26797751
vt 0.17357410 0.28275079
vt 0.27755600 0.28488889
vt 0.23208240 0.32364330
vt 0.21692830 0.32099691
vt 0.03752130 0.15925901
vt 0.03556758 0.16016170
vt 0.03085350 0.14432880
vt 0.03095608 0.12798940
vt 0.03302323 0.12832470
vt 0.03295582 0.14404230
vt 0.04486840 0.17416300
vt 0.05823498 0.18372780
vt 0.05663734 0.18705159
vt 0.07128393 0.19674250
vt 0.07043409 0.19762330
vt 0.07261127 0.19341180
vt 0.08839380 0.20209201
vt 0.08818536 0.20835990
vt 0.10925880 0.08326870
vt 0.09109169 0.08107429
vt 0.10963510 0.08107423
vt 0.09121018 0.08242601
vt 0.07376861 0.08224421
vt 0.10714040 0.08761912
vt 0.12723669 0.08695441
vt 0.12784970 0.08408123
vt 0.14276460 0.09750890
vt 0.15970270 0.13145611
vt 0.15418060 0.11305420
vt 0.16684620 0.10701580
vt 0.15900750 0.15050749
vt 0.17719869 0.12942460
vt 0.15275539 0.16854919
vt 0.17802019 0.15440260
vt 0.16962370 0.17753690
vt 0.15447409 0.19684321
vt 0.14114390 0.18384340
vt 0.13330340 0.20939060
vt 0.12567660 0.19541600
vt 0.10973800 0.21314430
vt 0.10740760 0.20181820
vt 0.14941449 0.09133666
vt 0.14447220 0.11732780
vt 0.14756811 0.13264650
vt 0.14608151 0.14787360
vt 0.13170300 0.17482470
vt 0.14041620 0.16196020
vt 0.11975300 0.18534930
vt 0.10517710 0.19253340
vt 0.08893656 0.19539300
vt 0.12461990 0.09153330
vt 0.13668901 0.10309720
vt 0.13720120 0.13270409
vt 0.13520449 0.12010780
vt 0.13562509 0.14506130
vt 0.13050710 0.15668640
vt 0.12313920 0.16764361
vt 0.11345940 0.17698190
vt 0.10161690 0.18398631
vt 0.08799630 0.18786789
vt 0.07332980 0.18793510
vt 0.12010190 0.09657311
vt 0.12958190 0.10769590
vt 0.13558049 0.13274230
vt 0.13406770 0.14463989
vt 0.12181660 0.16654590
vt 0.12903289 0.15587570
vt 0.11238890 0.17559230
vt 0.08772504 0.18602850
vt 0.10089620 0.18233611
vt 0.07357668 0.18600580
vt 0.05913364 0.18184540
vt 0.04648333 0.17261741
vt 0.03577381 0.11263520
vt 0.04648208 0.10052590
vt 0.03760904 0.11351800
vt 0.04486113 0.09903830
vt 0.05788493 0.08845597
vt 0.05895006 0.09029221
vt 0.07417511 0.08452695
vt 0.09084349 0.08460491
vt 0.10620760 0.08949810
vt 0.11883010 0.09798741
vt 0.13362190 0.12059050
vt 0.12801540 0.10871160
vt 0.03765791 0.30328581
usemtl nao
f 1/1/1 2/2/2 3/3/3
f 4/4/4 5/5/5 6/6/6
f 7/7/7 8/8/8 9/9/9
f 10/10/10 11/11/11 12/12/12
f 13/13/13 14/14/14 15/15/15
f 16/16/16 13/13/13 17/17/17
f 18/18/18 19/19/19 20/20/20
f 21/21/21 12/12/12 19/19/19
f 22/22/22 23/23/23 11/11/11
f 24/24/24 25/25/25 23/23/23
f 26/26/26 6/6/6 27/27/27
f 28/28/28 27/27/27 25/25/25
f 29/29/29 30/30/30 31/31/31
f 32/32/32 29/29/29 33/33/33
f 2/2/2 34/34/34 35/35/35
f 34/34/34 36/36/36 37/37/37
f 38/38/38 20/20/20 16/16/16
f 39/39/39 15/15/15 14/14/14
f 36/36/36 39/39/39 40/40/40
f 41/41/41 9/9/9 5/5/5
f 42/42/42 1/1/1 43/43/43
f 31/31/31 30/30/30 8/8/8
f 44/44/44 45/45/45 46/46/46
f 47/47/47 48/48/48 49/49/49
f 50/50/50 51/51/51 52/52/52
f 53/53/53 54/54/54 55/55/55
f 56/56/56 57/57/57 58/58/58
f 57/57/57 59/59/59 60/60/60
f 61/61/61 62/62/62 63/63/63
f 64/64/64 55/55/55 62/62/62
f 65/65/65 66/66/66 54/54/54
f 67/67/67 68/68/68 66/66/66
f 69/69/69 49/49/49 70/70/70
f 71/71/71 70/70/70 68/68/68
f 72/72/72 73/73/73 74/74/74
f 75/75/75 72/72/72 76/76/76
f 45/45/45 77/77/77 78/78/78
f 77/77/77 79/79/79 80/80/80
f 81/81/81 63/63/63 60/60/60
f 82/82/82 56/56/56 83/83/83
f 79/79/79 82/82/82 84/84/84
f 85/85/85 52/52/52 48/48/48
f 86/86/86 44/44/44 87/87/87
f 50/50/50 74/74/74 73/73/73
f 88/88/88 89/89/89 90/90/90
f 91/91/91 92/92/92 93/93/93
f 94/94/94 95/95/95 96/96/96
f 96/96/96 97/97/97 98/98/98
f 96/96/96 99/99/99 97/97/97
f 100/100/100 101/101/101 98/98/98
f 102/102/102 103/103/103 104/104/104
f 105/105/105 106/106/106 103/103/103
f 107/107/107 105/105/105 103/103/103
f 108/108/108 104/104/104 109/109/109
f 110/110/110 108/108/108 109/109/109
f 111/111/111 112/112/112 113/113/113
f 114/114/114 111/111/111 115/115/115
f 116/116/116 114/114/114 117/117/117
f 116/116/116 118/118/118 119/119/119
f 120/120/120 119/119/119 121/121/121
f 122/122/122 121/121/121 123/123/123
f 124/124/124 123/123/123 101/101/101
f 125/125/125 113/113/113 112/112/112
f 126/126/126 112/112/112 111/111/111
f 127/127/127 111/111/111 114/114/114
f 128/128/128 114/114/114 116/116/116
f 129/129/129 130/130/130 116/116/116
f 131/131/131 129/129/129 120/120/120
f 132/132/132 131/131/131 122/122/122
f 133/133/133 132/132/132 124/124/124
f 99/99/99 133/133/133 100/100/100
f 102/102/102 104/104/104 108/108/108
f 134/134/134 108/108/108 110/110/110
f 135/135/135 110/110/110 112/112/112
f 136/136/136 137/137/137 126/126/126
f 138/138/138 136/136/136 127/127/127
f 139/139/139 138/138/138 128/128/128
f 139/139/139 130/130/130 129/129/129
f 140/140/140 129/129/129 131/131/131
f 141/141/141 131/131/131 132/132/132
f 142/142/142 132/132/132 133/133/133
f 143/143/143 133/133/133 99/99/99
f 144/144/144 99/99/99 96/96/96
f 102/102/102 134/134/134 145/145/145
f 146/146/146 145/145/145 134/134/134
f 137/137/137 146/146/146 135/135/135
f 137/137/137 136/136/136 147/147/147
f 147/147/147 136/136/136 138/138/138
f 148/148/148 138/138/138 139/139/139
f 149/149/149 150/150/150 139/139/139
f 151/151/151 149/149/149 140/140/140
f 151/151/151 141/141/141 142/142/142
f 152/152/152 153/153/153 142/142/142
f 154/154/154 152/152/152 143/143/143
f 155/155/155 154/154/154 144/144/144
f 156/156/156 155/155/155 95/95/95
f 94/94/94 89/89/89 88/88/88
f 92/92/92 91/91/91 157/157/157
f 158/158/158 159/159/159 157/157/157
f 160/160/160 161/161/161 162/162/162
f 163/163/163 162/162/162 161/161/161
f 163/163/163 106/106/106 105/105/105
f 164/164/164 105/105/105 107/107/107
f 165/165/165 107/107/107 145/145/145
f 166/166/166 145/145/145 146/146/146
f 137/137/137 167/167/167 168/168/168
f 43/43/43 1/1/1 3/3/3
f 26/26/26 4/4/4 6/6/6
f 41/41/41 7/7/7 9/9/9
f 21/21/21 10/10/10 12/12/12
f 17/17/17 13/13/13 15/15/15
f 169/169/169 16/16/16 17/17/17
f 38/38/38 18/18/18 20/20/20
f 18/18/18 21/21/21 19/19/19
f 10/10/10 22/22/22 11/11/11
f 22/22/22 24/24/24 23/23/23
f 28/28/28 26/26/26 27/27/27
f 24/24/24 28/28/28 25/25/25
f 33/33/33 29/29/29 31/31/31
f 42/42/42 32/32/32 33/33/33
f 3/3/3 2/2/2 35/35/35
f 35/35/35 34/34/34 37/37/37
f 169/169/169 38/38/38 16/16/16
f 40/40/40 39/39/39 14/14/14
f 37/37/37 36/36/36 40/40/40
f 4/4/4 41/41/41 5/5/5
f 32/32/32 42/42/42 43/43/43
f 7/7/7 31/31/31 8/8/8
f 87/87/87 44/44/44 46/46/46
f 69/69/69 47/47/47 49/49/49
f 85/85/85 50/50/50 52/52/52
f 64/64/64 53/53/53 55/55/55
f 83/83/83 56/56/56 58/58/58
f 58/58/58 57/57/57 60/60/60
f 81/81/81 61/61/61 63/63/63
f 61/61/61 64/64/64 62/62/62
f 53/53/53 65/65/65 54/54/54
f 65/65/65 67/67/67 66/66/66
f 71/71/71 69/69/69 70/70/70
f 67/67/67 71/71/71 68/68/68
f 76/76/76 72/72/72 74/74/74
f 86/86/86 75/75/75 76/76/76
f 46/46/46 45/45/45 78/78/78
f 78/78/78 77/77/77 80/80/80
f 59/59/59 81/81/81 60/60/60
f 84/84/84 82/82/82 83/83/83
f 80/80/80 79/79/79 84/84/84
f 47/47/47 85/85/85 48/48/48
f 75/75/75 86/86/86 87/87/87
f 51/51/51 50/50/50 73/73/73
f 93/93/93 88/88/88 90/90/90
f 90/90/90 91/91/91 93/93/93
f 97/97/97 100/100/100 98/98/98
f 102/102/102 107/107/107 103/103/103
f 125/125/125 110/110/110 109/109/109
f 115/115/115 111/111/111 113/113/113
f 117/117/117 114/114/114 115/115/115
f 118/118/118 116/116/116 117/117/117
f 120/120/120 116/116/116 119/119/119
f 122/122/122 120/120/120 121/121/121
f 124/124/124 122/122/122 123/123/123
f 100/100/100 124/124/124 101/101/101
f 110/110/110 125/125/125 112/112/112
f 127/127/127 126/126/126 111/111/111
f 128/128/128 127/127/127 114/114/114
f 130/130/130 128/128/128 116/116/116
f 120/120/120 129/129/129 116/116/116
f 122/122/122 131/131/131 120/120/120
f 124/124/124 132/132/132 122/122/122
f 100/100/100 133/133/133 124/124/124
f 97/97/97 99/99/99 100/100/100
f 134/134/134 102/102/102 108/108/108
f 135/135/135 134/134/134 110/110/110
f 126/126/126 135/135/135 112/112/112
f 127/127/127 136/136/136 126/126/126
f 128/128/128 138/138/138 127/127/127
f 130/130/130 139/139/139 128/128/128
f 140/140/140 139/139/139 129/129/129
f 141/141/141 140/140/140 131/131/131
f 142/142/142 141/141/141 132/132/132
f 143/143/143 142/142/142 133/133/133
f 144/144/144 143/143/143 99/99/99
f 95/95/95 144/144/144 96/96/96
f 107/107/107 102/102/102 145/145/145
f 135/135/135 146/146/146 134/134/134
f 126/126/126 137/137/137 135/135/135
f 167/167/167 137/137/137 147/147/147
f 148/148/148 147/147/147 138/138/138
f 150/150/150 148/148/148 139/139/139
f 140/140/140 149/149/149 139/139/139
f 141/141/141 151/151/151 140/140/140
f 153/153/153 151/151/151 142/142/142
f 143/143/143 152/152/152 142/142/142
f 144/144/144 154/154/154 143/143/143
f 95/95/95 155/155/155 144/144/144
f 94/94/94 156/156/156 95/95/95
f 156/156/156 94/94/94 88/88/88
f 159/159/159 92/92/92 157/157/157
f 160/160/160 158/158/158 157/157/157
f 158/158/158 160/160/160 162/162/162
f 106/106/106 163/163/163 161/161/161
f 164/164/164 163/163/163 105/105/105
f 165/165/165 164/164/164 107/107/107
f 166/166/166 165/165/165 145/145/145
f 168/168/168 166/166/166 146/146/146
f 146/146/146 137/137/137 168/168/168

